<?xml version="1.0" encoding="UTF-8" standalone="no"?>
<!-- Generator: Adobe Illustrator 18.0.0, SVG Export Plug-In . SVG Version: 6.00 Build 0)  -->

<svg
   version="1.1"
   id="Livello_1"
   x="0px"
   y="0px"
   width="34"
   height="38.8573"
   viewBox="0 0 34 38.8573"
   enable-background="new 0 0 46 91.5"
   xml:space="preserve"
   xmlns="http://www.w3.org/2000/svg"
   xmlns:svg="http://www.w3.org/2000/svg"><defs
   id="defs77" />

<path
   fill="#ffffff"
   d="m 6.5000002,4.3000008 c -0.1,-0.1 -0.3,-0.2 -0.5,-0.2 l 1.3,-1 c 0.2,0 0.4,0.1 0.5,0.3 0.1,0.2 0.3,0.3 0.5,0.3 l -1.3,0.9 c -0.2,-0.1 -0.4,-0.2 -0.5,-0.3"
   id="path1" />
<path
   fill="#ffffff"
   d="m 8.2000002,3.1000008 c -0.1,-0.2 -0.3,-0.3 -0.5,-0.3 l 1.4,-0.8 c 0.2,0.1 0.4,0.2 0.5,0.3 0.1,0.2 0.3,0.3 0.4999998,0.4 l -1.3999998,0.7 c -0.2,-0.1 -0.4,-0.2 -0.5,-0.3"
   id="path2" />
<path
   fill="#ffffff"
   d="m 10.1,2.0000008 c -0.1,-0.1 -0.2999998,-0.3 -0.3999998,-0.3 l 1.4999998,-0.6 c 0.2,0.1 0.3,0.2 0.4,0.4 0.1,0.2 0.2,0.3 0.4,0.4 l -1.5,0.6 c -0.1,-0.2 -0.3,-0.3 -0.4,-0.5"
   id="path3" />
<path
   fill="#ffffff"
   d="m 12.1,1.3000008 c -0.1,-0.2 -0.2,-0.3 -0.4,-0.40000004 l 1.6,-0.4 c 0.2,0.1 0.3,0.3 0.4,0.50000004 0.1,0.2 0.2,0.4 0.4,0.5 l -1.6,0.2 c -0.1,-0.1 -0.3,-0.3 -0.4,-0.4"
   id="path4" />
<path
   fill="#ffffff"
   d="m 14.2,0.80000076 c 0,-0.2 -0.2,-0.4 -0.3,-0.5 l 1.7,-0.2 c 0.1,0.1 0.3,0.3 0.3,0.5 0,0.2 0.1,0.40000004 0.3,0.50000004 l -1.6,0.2 c -0.2,-0.2 -0.3,-0.40000004 -0.4,-0.50000004"
   id="path5" />
<path
   fill="#ffffff"
   d="m 16.4,0.50000076 c 0,-0.2 -0.1,-0.4 -0.3,-0.49999999706055 h 1.7 C 17.9,0.20000076 18,0.30000076 18,0.50000076 c 0,0.2 0.1,0.4 0.2,0.50000004 H 16.6 C 16.5,0.90000076 16.4,0.70000076 16.4,0.50000076"
   id="path6" />
<path
   fill="#ffffff"
   d="m 18.5,0.60000076 c 0,-0.2 -0.1,-0.4 -0.2,-0.5 l 1.7,0.2 c 0.1,0.2 0.2,0.4 0.2,0.6 0,0.20000004 0,0.40000004 0.2,0.60000004 l -1.6,-0.4 c -0.2,-0.1 -0.3,-0.30000004 -0.3,-0.50000004"
   id="path7" />
<path
   fill="#ffffff"
   d="m 20.6,0.90000076 c 0,-0.2 0,-0.4 -0.1,-0.6 l 1.6,0.4 c 0.1,0.2 0.1,0.40000004 0.1,0.60000004 0,0.2 0,0.4 0.1,0.6 l -1.5,-0.4 c -0.1,-0.2 -0.2,-0.4 -0.2,-0.60000004"
   id="path8" />
<path
   fill="#ffffff"
   d="m 22.7,1.5000008 c 0.1,-0.2 0,-0.4 0,-0.60000004 l 1.5,0.60000004 c 0.1,0.2 0.1,0.4 0,0.6 -0.1,0.2 -0.1,0.4 0,0.6 l -1.4,-0.6 c -0.1,-0.1 -0.1,-0.4 -0.1,-0.6"
   id="path9" />
<path
   fill="#ffffff"
   d="m 24.7,2.4000008 c 0.1,-0.2 0.1,-0.4 0,-0.6 l 1.4,0.8 c 0,0.2 0,0.4 -0.1,0.6 -0.1,0.2 -0.1,0.4 -0.1,0.6 l -1.3,-0.8 c 0,-0.2 0,-0.4 0.1,-0.6"
   id="path10" />
<path
   fill="#ffffff"
   d="m 19.3,29.900001 c 0,0.1 0.1,0.1 0.1,0.2 0,0.1 0.1,0 0.2,0 l 1.2,-0.3 c 0.1,0 0.2,-0.1 0.2,-0.2 0,-0.1 0,-0.2 -0.1,-0.2 -0.1,-0.1 -0.2,-0.1 -0.2,-0.1 l -1.7,0.5 c -0.4,0.1 -0.7,-0.1 -0.8,-0.5 l -0.1,-0.4 c -0.1,-0.4 0.1,-0.7 0.5,-0.8 l 2.2,-0.6 c 0.4,-0.1 0.7,0.1 0.8,0.5 l 0.1,0.2 -0.9,0.2 c 0,-0.1 -0.2,-0.2 -0.3,-0.2 l -1.2,0.3 c -0.1,0 -0.2,0.2 -0.2,0.3 0,0.1 0.2,0.2 0.3,0.2 l 1.7,-0.5 c 0.2,0 0.4,0 0.5,0.1 0.2,0.1 0.3,0.2 0.3,0.4 l 0.1,0.4 c 0,0.2 0,0.4 -0.1,0.5 -0.1,0.2 -0.2,0.3 -0.4,0.3 l -2.2,0.6 c -0.4,0.1 -0.7,-0.1 -0.8,-0.5 l -0.1,-0.2 0.9,-0.2"
   id="path11" />
<path
   fill="#ffffff"
   d="m 13.5,30.000001 0.4,-1 -1.8,-0.7 -0.2,0.6 0.7,0.3 0.2,0.1 -0.1,0.2 c 0,0.1 -0.1,0.1 -0.1,0.1 -0.1,0 -0.1,0 -0.2,0 l -1.3,-0.5 c -0.1,0 -0.2,-0.2 -0.1,-0.3 l 0.4,-1 c 0,-0.1 0.1,-0.1 0.1,-0.1 0.1,0 0.1,0 0.2,0 l 1.3,0.5 c 0.1,0 0.1,0.1 0.1,0.1 0,0.1 0,0.1 0,0.2 l 0.9,0.4 0.1,-0.2 c 0.1,-0.3 0,-0.7 -0.4,-0.9 l -2.3,-0.9 c -0.3,-0.1 -0.7,0 -0.9,0.4 l -0.5999998,1.4 c -0.1,0.3 0,0.7 0.3999998,0.9 l 2.3,0.9 c 0.4,0 0.8,-0.2 0.9,-0.5"
   id="path12" />
<path
   fill="#ffffff"
   d="m 9.3000002,25.100001 -3,1.2 0.7,0.6 0.7,-0.3 1.1,1 -0.2,0.7 0.7,0.6 0.8999998,-3.1 z m -0.3,1.9 -0.7,-0.6 1,-0.4 z"
   id="path13" />
<polygon
   fill="#ffffff"
   points="21.6,47 21.6,47.5 23.5,47.7 23.5,48.3 21.5,48.1 21.5,48.5 23.7,48.8 23.6,49.4 20.4,49.1 20.7,46.2 23.9,46.6 23.9,47.2 "
   id="polygon13"
   transform="translate(-6.1999998,-18.299999)" />
<polyline
   fill="#ffffff"
   points="33.6,44.8 31.5,42.7 30.9,43.3 33,45.4 33.6,44.8 "
   id="polyline13"
   transform="translate(-6.1999998,-18.299999)" />
<path
   fill="#ffffff"
   d="m 25.2,26.000001 -0.8,0.5 c -0.1,-0.1 -0.2,-0.1 -0.3,-0.1 l -1.3,0.8 c -0.1,0.1 -0.1,0.2 -0.1,0.3 l 0.6,0.9 c 0,0 0.1,0.1 0.1,0.1 0.1,0 0.1,0 0.2,0 l 1.2,-0.8 c 0.1,-0.1 0.1,-0.2 0.1,-0.3 l -0.1,-0.2 0.8,-0.5 0.2,0.4 c 0.2,0.3 0.1,0.7 -0.2,0.9 l -2,1.3 c -0.2,0.1 -0.3,0.1 -0.5,0.1 -0.2,0 -0.3,-0.1 -0.4,-0.3 l -0.8,-1.3 c -0.2,-0.3 -0.1,-0.7 0.2,-0.9 l 2,-1.3 c 0.3,-0.2 0.7,-0.1 0.9,0.2 l 0.2,0.2"
   id="path14" />
<path
   fill="#ffffff"
   d="m 29.3,17.000001 c 1,-0.7 1.6,-1.9 1.6,-3.1 0,-1.2 -0.5,-2.4 -1.4,-3.2 -1.2,-0.8000002 -2.7,-1.0000002 -4,-0.4 -1.1,0.5 -2.1,1.2 -2.9,2.1 -0.4,0.5 -0.9,0.9 -1.4,1.2 -0.1,0.1 -0.3,0.1 -0.5,0.2 -0.2,0 -0.3,0 -0.5,-0.1 -0.1,0 -0.1,-0.1 -0.2,-0.1 -0.2,-0.2 -0.3,-0.5 -0.3,-0.7 0,-0.3 0.1,-0.5 0.3,-0.7 0.3,-0.3 0.6,-0.5 0.9,-0.7 1.2,-0.8 2.2,-2.0000002 2.8,-3.4000002 0.6,-1.3 0.4,-2.8 -0.4,-4 -0.8,-0.9 -2,-1.5 -3.2,-1.4 -1.2,0 -2.4,0.6 -3.1,1.6 -0.7,-1 -1.9,-1.6 -3.1,-1.6 -1.2,0 -2.4,0.5 -3.2,1.4 -0.7999998,1.2 -0.9999998,2.7 -0.4,4 0.6,1.4 1.5,2.6000002 2.8,3.4000002 0.3,0.2 0.6,0.4 0.9,0.7 0.2,0.2 0.3,0.5 0.3,0.7 0,0.3 -0.1,0.5 -0.3,0.7 -0.1,0.1 -0.2,0.1 -0.3,0.1 -0.2,0.1 -0.3,0.1 -0.5,0.1 -0.2,0 -0.3,-0.1 -0.5,-0.2 -0.5,-0.3 -1,-0.7 -1.4,-1.2 -0.8,-0.9 -1.7999998,-1.7 -2.8999998,-2.1 -1.3,-0.6000002 -2.8,-0.4000002 -4,0.4 -0.9,0.8 -1.5,2 -1.4,3.2 0.1,1.2 0.6,2.4 1.6,3.1 -1,0.7 -1.6,1.9 -1.6,3.1 0,1.2 0.5,2.4 1.4,3.2 1.2,0.8 2.7,1 4,0.4 0.8,-0.3 1.5999998,-0.8 2.2999998,-1.5 0.6,-0.5 1,-1 1.4,-1.6 0.1,-0.1 0.2,-0.2 0.3,-0.3 0.5,-0.4 1.1,-0.6 1.8,-0.5 0.6,0.1 1.2,0.4 1.5,1 0.1,0.1 0.1,0.2 0.2,0.4 0.2,0.5 0.2,1.1 0.2,1.7 -0.1,1 -0.3,1.9 -0.6,2.8 -0.2,0.4 -0.4,0.8 -0.6,1.2 l 2.4,0.8 0.3,-1.2 c 0.1,-1 0.2,-1.9 0.3,-2.9 0,-0.8 0.1,-1.5 0.3,-2.3 0,-0.1 0.1,-0.3 0.2,-0.4 0.3,-0.5 0.9,-0.9 1.5,-1 0.6,-0.1 1.3,0.1 1.8,0.5 0.1,0.1 0.2,0.2 0.3,0.3 0.4,0.6 0.9,1.2 1.4,1.6 0.7,0.6 1.4,1.1 2.3,1.5 1.3,0.6 2.8,0.4 4,-0.4 0.9,-0.8 1.5,-2 1.4,-3.2 -0.2,-1.3 -0.8,-2.5 -1.8,-3.2 m 0.9,5 c -1,1.6 -3.2,2.2 -4.9,1.3 -1.2,-0.6 -2.3,-1.4 -3.1,-2.5 -0.1,-0.2 -0.3,-0.4 -0.5,-0.5 -0.5,-0.6 -1.2,-0.9 -2,-0.8 -0.8,0.1 -1.4,0.6 -1.7,1.3 -0.1,0.1 -0.1,0.2 -0.2,0.4 -0.2,0.8 -0.3,1.5 -0.3,2.3 -0.1,1 -0.1,2 -0.3,2.9 l -0.3,1 -1.9,-0.7 c 0.2,-0.3 0.4,-0.7 0.5,-1 0.2,-0.5 0.3,-1.1 0.5,-1.6 0.1,-0.5 0.2,-1 0.2,-1.4 0,-0.5 -0.1,-1 -0.2,-1.5 0,-0.1 -0.1,-0.3 -0.2,-0.4 -0.3,-0.7 -0.9,-1.2 -1.7,-1.3 -0.7,-0.1 -1.5,0.2 -2,0.8 -0.2,0.2 -0.3,0.4 -0.5,0.5 -0.8,1.1 -1.8999998,1.9 -3.0999998,2.5 -1.7,0.9 -3.9,0.4 -4.9,-1.3 -1,-1.6 -0.6,-3.8 0.9,-5 -1.6,-1.2 -2,-3.3 -0.9,-5 1,-1.7 3.2,-2.2000002 4.9,-1.3 0.8,0.4 1.5999998,0.9 2.2999998,1.5 0.5,0.5 1,0.9 1.5,1.4 0.4,0.3 0.9,0.4 1.4,0.5 0.2,0 0.3,-0.1 0.4,-0.2 0.1,-0.2 0.2,-0.5 0.2,-0.8 0,-0.5 -0.2,-0.9 -0.6,-1.2 -0.3,-0.2 -0.6,-0.5 -0.9,-0.6 -1,-0.8 -1.8,-1.8000002 -2.3,-2.9000002 -0.8999998,-1.7 -0.4,-3.9 1.3,-4.9 1.7,-1 3.8,-0.6 5,0.9 1.2,-1.6 3.3,-2 5,-0.9 1.7,1 2.2,3.2 1.3,4.9 -0.5,1.1 -1.3,2.2000002 -2.3,2.9000002 -0.3,0.2 -0.6,0.4 -0.9,0.6 -0.3,0.3 -0.5,0.7 -0.6,1.2 0,0.3 0,0.5 0.2,0.8 0.1,0.2 0.2,0.3 0.4,0.2 0.5,0 1,-0.2 1.4,-0.5 0.5,-0.4 1,-0.9 1.5,-1.4 0.7,-0.6 1.4,-1.2 2.3,-1.5 1.7,-0.9000002 3.9,-0.4 4.9,1.3 1,1.6 0.6,3.8 -0.9,5 1.7,1.2 2.1,3.3 1.1,5"
   id="path15" />
<path
   fill="#ffffff"
   d="m 16.8,35.700001 c 0,-0.2 -0.1,-0.4 -0.3,-0.6 -0.3,0.2 -0.6,0.4 -0.9,0.7 -0.1,0.1 -0.2,0.1 -0.3,0.2 0,0.2 0,0.4 0,0.6 0.1,0.2 0.1,0.4 0.1,0.5 0.3,-0.1 0.7,-0.3 0.9,-0.5 0.1,-0.1 0.2,-0.2 0.4,-0.3 0.1,0 0.1,-0.1 0.2,-0.1 0,-0.2 -0.1,-0.4 -0.1,-0.5"
   id="path16" />
<path
   fill="#ffffff"
   d="m 19,35.000001 c 0,-0.2 -0.1,-0.4 -0.3,-0.6 -0.7,0.1 -1.3,0.3 -1.9,0.6 0.3,0.1 0.5,0.4 0.5,0.7 0,0.1 0,0.1 0,0.2 0.6,-0.3 1.1,-0.4 1.8,-0.4 -0.1,-0.2 -0.1,-0.3 -0.1,-0.5"
   id="path17" />
<path
   fill="#ffffff"
   d="m 20.8,34.600001 c -0.5,-0.2 -1.1,-0.2 -1.7,-0.2 0.2,0.1 0.3,0.4 0.3,0.6 0,0.1 0,0.1 0,0.2 v 0.3 l 0.6,0.1 c 0.5,-0.3 0.7,-0.6 0.8,-1"
   id="path18" />
<path
   fill="#ffffff"
   d="m 21.8,34.600001 c -0.2,0 -0.4,0 -0.6,0.1 -0.1,0.4 -0.4,0.8 -0.7,1 0.2,0.1 0.4,0.2 0.6,0.4 0.1,0.1 0.2,0.2 0.3,0.3 0.6,-0.5 0.9,-1.2 1,-1.9 -0.2,0.2 -0.4,0.2 -0.6,0.1"
   id="path19" />
<path
   fill="#ffffff"
   d="m 20.6,36.400001 c 0.1,0.2 0.2,0.3 0.4,0.4 -0.5,0.3 -1,0.4 -1.5,0.4 -0.2,0 -0.4,0 -0.6,0 0,-0.1 0,-0.3 0,-0.4 0.1,-0.2 0.1,-0.5 0,-0.7 0.2,0.1 0.4,0.1 0.6,0.1 0.2,0 0.5,-0.1 0.7,-0.2 0.1,0.1 0.3,0.2 0.4,0.4"
   id="path20" />
<path
   fill="#ffffff"
   d="m 18.4,36.500001 c -0.1,0.2 -0.1,0.3 -0.1,0.5 -0.2,-0.1 -0.5,-0.2 -0.7,-0.3 l -0.5,-0.3 c 0.4,-0.2 0.8,-0.4 1.2,-0.5 0,0 0,0 0.1,0 0.1,0.2 0.1,0.4 0,0.6"
   id="path21" />
<path
   fill="#ffffff"
   d="m 19,33.500001 c 0,0.2 -0.1,0.4 -0.3,0.6 -0.7,-0.1 -1.3,-0.3 -1.9,-0.5 0.3,-0.1 0.5,-0.4 0.5,-0.7 0,-0.1 0,-0.1 0,-0.2 0.5,0.3 1.1,0.4 1.8,0.4 -0.1,0 -0.1,0.2 -0.1,0.4"
   id="path22" />
<path
   fill="#ffffff"
   d="m 16.8,32.800001 c 0,-0.2 0,-0.3 0.1,-0.5 -0.2,-0.1 -0.4,-0.3 -0.6,-0.4 l -0.1,-0.2 c -0.3,-0.2 -0.6,-0.3 -0.9,-0.4 -0.1,0.1 -0.1,0.2 -0.1,0.4 0,0.2 -0.1,0.5 -0.3,0.6 0.2,0 0.5,0.1 0.7,0.2 l 0.2,0.1 c 0.3,0.2 0.6,0.4 0.9,0.6 0,0 0.1,-0.2 0.1,-0.4"
   id="path23" />
<path
   fill="#ffffff"
   d="m 14.6,31.700001 c 0,-0.2 0,-0.4 0.2,-0.5 h -0.2 c -0.8,0 -1.5,0.2 -2.1,0.7 0.4,0.2 0.8,0.4 1.2,0.5 0.2,-0.1 0.4,-0.1 0.7,-0.2 0.1,-0.1 0.2,-0.3 0.2,-0.5"
   id="path24" />
<path
   fill="#ffffff"
   d="m 11.9,32.700001 c 0,-0.2 0,-0.4 -0.1,-0.5 l 0.6,0.3 c 0.3,0.2 0.7,0.3 1.1,0.4 0.1,0.1 0.1,0.3 0.1,0.4 -0.1,0.2 0,0.5 0,0.7 -0.5,-0.1 -1.1,-0.3 -1.5,-0.5 -0.2,-0.3 -0.3,-0.5 -0.2,-0.8"
   id="path25" />
<path
   fill="#ffffff"
   d="m 14,33.300001 c 0,-0.1 0,-0.2 0,-0.4 0.4,0.1 0.8,0.1 1.2,0 0.3,0.3 0.7,0.6 1.1,0.8 -0.7,0.2 -1.4,0.3 -2.1,0.3 -0.3,-0.2 -0.3,-0.5 -0.2,-0.7"
   id="path26" />
<path
   fill="#ffffff"
   d="m 14,35.100001 c 0,0.1 0,0.2 0,0.4 0.4,-0.1 0.8,-0.1 1.2,0 0.3,-0.3 0.7,-0.6 1.1,-0.8 -0.7,-0.2 -1.4,-0.3 -2.1,-0.3 -0.3,0.2 -0.3,0.5 -0.2,0.7"
   id="path27" />
<path
   fill="#ffffff"
   d="m 15,36.100001 c -0.1,0.2 -0.1,0.5 0,0.7 0,0.1 0.1,0.3 0,0.4 -0.1,0 -0.3,0 -0.4,0 -0.8,0 -1.5,-0.2 -2.1,-0.7 0.4,-0.2 0.8,-0.4 1.2,-0.5 0.3,0.1 0.6,0.2 0.9,0.2 0.1,-0.1 0.2,-0.1 0.4,-0.1"
   id="path28" />
<path
   fill="#ffffff"
   d="m 11.9,35.700001 c 0,0.3 0,0.6 -0.2,0.8 0.1,-0.1 0.3,-0.2 0.4,-0.3 0.4,-0.3 0.9,-0.5 1.4,-0.6 0.1,-0.1 0.1,-0.3 0.1,-0.4 -0.1,-0.2 0,-0.5 0,-0.7 -0.2,0 -0.4,0.1 -0.7,0.2 -0.3,0.1 -0.6,0.2 -0.9,0.4 -0.1,0.1 -0.2,0.4 -0.1,0.6"
   id="path29" />
<path
   fill="#ffffff"
   d="m 11.9,33.700001 -0.3,-0.1 c -0.1,0.4 -0.1,0.9 0,1.3 0.3,-0.2 0.7,-0.3 1,-0.5 0,-0.1 0,-0.2 0,-0.4 -0.2,0 -0.5,-0.2 -0.7,-0.3"
   id="path30" />
<path
   fill="#ffffff"
   d="m 11.3,36.000001 c 0,0.2 0,0.3 0,0.5 l -0.1,0.5 -0.6,0.7 -0.7999998,-0.7 0.5999998,-0.7 c 0.3,-0.4 0.7,-0.7 1.1,-1 -0.2,0.3 -0.2,0.5 -0.2,0.7"
   id="path31" />
<rect
   x="31.462893"
   y="22.325432"
   transform="rotate(40.339652)"
   fill="#ffffff"
   width="1.0999703"
   height="0.099997304"
   id="rect31"
   style="stroke-width:0.999973" />
<rect
   x="31.380556"
   y="22.703051"
   transform="rotate(40.302979)"
   fill="#ffffff"
   width="1.09995"
   height="0.69996816"
   id="rect32"
   style="stroke-width:0.999955" />
<path
   fill="#ffffff"
   d="m 22,36.400001 c 0.2,-0.3 0.4,-0.6 0.6,-0.9 0.3,0.2 0.6,0.5 0.9,0.9 l 0.6,0.7 -0.8,0.7 -0.6,-0.7 c -0.2,-0.3 -0.5,-0.5 -0.7,-0.7"
   id="path32" />
<rect
   x="5.6319919"
   y="-44.354633"
   transform="rotate(139.66035)"
   fill="#ffffff"
   width="1.0999703"
   height="0.099997304"
   id="rect33"
   style="stroke-width:0.999973" />
<rect
   x="5.6334758"
   y="-45.2285"
   transform="rotate(139.62368)"
   fill="#ffffff"
   width="1.0999913"
   height="0.69999444"
   id="rect34"
   style="stroke-width:0.999992" />
<path
   fill="#ffffff"
   d="m 17.4,31.900001 0.2,-0.2 c 0.3,-0.2 0.6,-0.3 0.9,-0.4 0.1,0.1 0.1,0.2 0.1,0.4 0,0.2 0.1,0.5 0.3,0.6 -0.2,0 -0.3,0.1 -0.5,0.2 -0.4,-0.1 -0.9,-0.2 -1.2,-0.5 0.1,0 0.2,-0.1 0.2,-0.1"
   id="path34" />
<path
   fill="#ffffff"
   d="m 20.8,33.800001 c -0.1,-0.4 -0.4,-0.7 -0.7,-0.9 -0.2,0 -0.4,0.1 -0.6,0.1 v 0.3 c 0,0.1 0,0.1 0,0.2 0,0.2 -0.1,0.5 -0.3,0.6 0.5,0 1.1,-0.1 1.6,-0.3"
   id="path35" />
<path
   fill="#ffffff"
   d="m 21.2,32.600001 c -0.1,0.1 -0.2,0.3 -0.3,0.5 0.3,0.4 0.4,0.8 0.4,1.2 0.2,-0.2 0.4,-0.2 0.7,-0.2 0.1,0 0.3,0 0.4,0 0,-0.7 -0.3,-1.4 -0.9,-2 0,0.2 -0.1,0.3 -0.3,0.5"
   id="path36" />
<path
   fill="#ffffff"
   d="m 11.3,32.400001 c 0,-0.2 0,-0.3 -0.1,-0.5 l -1.4999998,-0.7 c 0.1,0.2 0.1,0.4 0,0.6 0,0.2 0,0.4 0,0.6 l 1.7999998,0.8 c -0.2,-0.2 -0.3,-0.5 -0.2,-0.8"
   id="path37" />
<path
   fill="#ffffff"
   d="m 9.3000002,31.600001 c -0.1,0.2 -0.1,0.4 0,0.6 l -1.5,-0.9 c 0,-0.2 0,-0.4 0.1,-0.6 0.1,-0.2 0.1,-0.4 0.1,-0.6 l 1.3,0.8 c 0,0.3 0,0.5 0,0.7"
   id="path38" />
<path
   fill="#ffffff"
   d="m 7.5000002,30.500001 c -0.1,0.2 -0.1,0.4 -0.1,0.6 l -1.3,-1 c 0,-0.2 0,-0.4 0.1,-0.6 0.1,-0.2 0.2,-0.4 0.1,-0.6 l 1.2,1 c 0.1,0.2 0,0.4 0,0.6"
   id="path39" />
<path
   fill="#ffffff"
   d="m 5.8000002,29.100001 c 0.1,-0.2 0.1,-0.5 0,-0.7 l -1,-1 c 0,0.2 -0.1,0.4 -0.2,0.6 -0.1,0.2 -0.2,0.3 -0.2,0.5 l 1.2,1.2 c 0,-0.3 0.1,-0.5 0.2,-0.6"
   id="path40" />
<path
   fill="#ffffff"
   d="m 4.3000002,27.500001 c -0.1,0.1 -0.2,0.3 -0.2,0.5 l -1,-1.3 c 0,-0.2 0.1,-0.4 0.3,-0.5 0.2,-0.1 0.3,-0.3 0.3,-0.5 l 0.9,1.3 c -0.1,0.2 -0.2,0.4 -0.3,0.5"
   id="path41" />
<path
   fill="#ffffff"
   d="m 3.0000002,25.800001 c -0.2,0.1 -0.3,0.3 -0.3,0.5 l -0.8,-1.4 c 0.1,-0.2 0.2,-0.4 0.3,-0.5 0.2,-0.1 0.3,-0.3 0.3,-0.5 l 0.7,1.4 c 0.1,0.2 0,0.3 -0.2,0.5"
   id="path42" />
<path
   fill="#ffffff"
   d="m 2.0000002,23.900001 c -0.2,0.1 -0.3,0.2 -0.4,0.4 l -0.6,-1.5 c 0.1,-0.2 0.2,-0.3 0.4,-0.4 0.2,-0.1 0.3,-0.2 0.4,-0.4 l 0.6,1.5 c -0.1,0.1 -0.2,0.3 -0.4,0.4"
   id="path43" />
<path
   fill="#ffffff"
   d="m 1.2000002,21.900001 c 0.2,-0.1 0.3,-0.3 0.4,-0.4 l -0.4,-1.5 c -0.1,0.2 -0.30000001,0.3 -0.50000001,0.4 -0.2,0.1 -0.3,0.2 -0.5,0.4 l 0.6,1.5 c 0.1,-0.2 0.20000001,-0.4 0.40000001,-0.4"
   id="path44" />
<path
   fill="#ffffff"
   d="m 0.70000019,19.800001 c 0.2,-0.1 0.40000001,-0.2 0.50000001,-0.4 l -0.2,-1.6 c -0.10000001,0.2 -0.30000001,0.3 -0.50000001,0.3 -0.2,0.1 -0.4,0.2 -0.49999999926514,0.3 l 0.19999999926514,1.7 c 0.2,-0.2 0.3,-0.3 0.5,-0.3"
   id="path45" />
<path
   fill="#ffffff"
   d="m 0.50000019,17.600001 c 0.2,-0.1 0.4,-0.2 0.50000001,-0.3 v -1.6 c -0.10000001,0.1 -0.30000001,0.2 -0.50000001,0.2 -0.2,0 -0.4,0.1 -0.49999999926514,0.2 v 1.7 C 0.10000019,17.700001 0.30000019,17.700001 0.50000019,17.600001"
   id="path46" />
<path
   fill="#ffffff"
   d="m 0.60000019,15.500001 c 0.2,0 0.40000001,-0.1 0.60000001,-0.2 l 0.2,-1.6 c -0.2,0.1 -0.4,0.2 -0.60000001,0.2 -0.2,0 -0.4,0.1 -0.6,0.2 l -0.19999999926514,1.6 C 0.20000019,15.500001 0.40000019,15.500001 0.60000019,15.500001"
   id="path47" />
<path
   fill="#ffffff"
   d="m 0.90000019,13.400001 c 0.20000001,0 0.40000001,-0.1 0.60000001,-0.2 l 0.4,-1.5 c -0.2,0.1 -0.4,0.1 -0.6,0.1 -0.2,0 -0.40000001,0 -0.60000001,0.1 l -0.4,1.6 c 0.2,-0.1 0.4,-0.2 0.6,-0.1"
   id="path48" />
<path
   fill="#ffffff"
   d="m 1.5000002,11.300001 c 0.2,0 0.4,0 0.6,-0.1 l 0.7,-1.4000002 c -0.2,0.1 -0.4,0.1 -0.6,0 -0.2,0 -0.4,0 -0.6,0 l -0.6,1.5000002 c 0.1,-0.1 0.3,-0.1 0.5,0"
   id="path49" />
<path
   fill="#ffffff"
   d="m 2.4000002,9.3000008 c 0.2,0.1 0.4,0 0.6,0 l 0.8,-1.3 c -0.2,0 -0.4,0 -0.6,-0.1 -0.2,-0.1 -0.4,-0.1 -0.6,-0.1 l -0.8,1.5 c 0.2,-0.1 0.4,-0.1 0.6,0"
   id="path50" />
<path
   fill="#ffffff"
   d="m 3.5000002,7.5000008 c -0.2,-0.1 -0.4,-0.1 -0.6,-0.1 l 1,-1.3 c 0.2,0 0.4,0 0.6,0.1 0.2,0.1 0.4,0.2 0.6,0.1 l -1,1.2 c -0.2,0.1 -0.4,0.1 -0.6,0"
   id="path51" />
<path
   fill="#ffffff"
   d="m 4.9000002,5.8000008 c -0.2,-0.1 -0.3,-0.2 -0.5,-0.2 l 1.2,-1.2 c 0.2,0 0.4,0.1 0.5,0.2 0.2,0.1 0.3,0.2 0.5,0.2 l -1.1,1.1 c -0.2,0.1 -0.4,0 -0.6,-0.1"
   id="path52" />
<path
   fill="#ffffff"
   d="m 26.5,3.6000008 c 0.1,-0.2 0.1,-0.4 0.1,-0.6 l 1.3,1 c 0,0.2 0,0.4 -0.1,0.6 -0.1,0.2 -0.2,0.4 -0.1,0.6 l -1.2,-1 c -0.1,-0.3 -0.1,-0.5 0,-0.6"
   id="path53" />
<path
   fill="#ffffff"
   d="m 28.2,4.9000008 c -0.1,0.2 -0.2,0.4 -0.1,0.6 l 1.1,1.1 c 0,-0.2 0.1,-0.4 0.2,-0.5 0.1,-0.2 0.2,-0.3 0.2,-0.5 l -1.2,-1.2 c 0,0.2 -0.1,0.4 -0.2,0.5"
   id="path54" />
<path
   fill="#ffffff"
   d="m 29.7,6.5000008 c -0.1,0.2 -0.2,0.4 -0.2,0.6 l 0.9,1.3 c 0,-0.2 0.1,-0.4 0.3,-0.5 0.1,-0.1 0.2,-0.3 0.3,-0.5 l -1,-1.3 c -0.1,0.1 -0.2,0.2 -0.3,0.4"
   id="path55" />
<path
   fill="#ffffff"
   d="m 30.9,8.2000008 c -0.1,0.1 -0.2,0.3 -0.3,0.5 l 0.7,1.4000002 c 0.1,-0.2000002 0.2,-0.4000002 0.3,-0.5000002 0.2,-0.1 0.3,-0.3 0.3,-0.5 l -0.7,-1.4 c 0,0.2 -0.1,0.4 -0.3,0.5"
   id="path56" />
<path
   fill="#ffffff"
   d="m 32,10.100001 c -0.2,0.1 -0.3,0.3 -0.4,0.5 l 0.6,1.5 c 0.1,-0.2 0.2,-0.3 0.4,-0.4 0.2,-0.1 0.3,-0.2 0.4,-0.4 L 32.3,9.7000008 c 0,0.2 -0.2,0.3000002 -0.3,0.4000002"
   id="path57" />
<path
   fill="#ffffff"
   d="m 32.7,12.100001 c -0.2,0.1 -0.3,0.3 -0.4,0.4 l 0.4,1.5 c 0.1,-0.2 0.3,-0.3 0.5,-0.4 0.2,-0.1 0.3,-0.2 0.5,-0.4 l -0.5,-1.5 c -0.1,0.2 -0.3,0.4 -0.5,0.4"
   id="path58" />
<path
   fill="#ffffff"
   d="m 33.2,14.200001 c -0.2,0.1 -0.4,0.2 -0.5,0.4 l 0.2,1.6 c 0.1,-0.2 0.3,-0.3 0.5,-0.3 0.2,-0.1 0.4,-0.2 0.5,-0.3 l -0.2,-1.7 c -0.1,0.2 -0.3,0.3 -0.5,0.3"
   id="path59" />
<path
   fill="#ffffff"
   d="m 33.5,16.400001 c -0.2,0.1 -0.4,0.2 -0.5,0.3 v 1.6 c 0.1,-0.1 0.3,-0.2 0.5,-0.2 0.2,0 0.4,-0.1 0.5,-0.2 v -1.7 c -0.2,0.1 -0.3,0.2 -0.5,0.2"
   id="path60" />
<path
   fill="#ffffff"
   d="m 33.4,18.500001 c -0.2,0 -0.4,0.1 -0.6,0.2 l -0.2,1.5 c 0.2,-0.1 0.4,-0.2 0.6,-0.2 0.2,0 0.4,-0.1 0.6,-0.2 l 0.2,-1.7 c -0.2,0.4 -0.4,0.4 -0.6,0.4"
   id="path61" />
<path
   fill="#ffffff"
   d="m 33.1,20.700001 c -0.2,0 -0.4,0.1 -0.6,0.2 l -0.4,1.5 c 0.2,-0.1 0.4,-0.1 0.6,-0.1 0.2,0 0.4,0 0.6,-0.1 l 0.4,-1.6 c -0.2,0 -0.4,0.1 -0.6,0.1"
   id="path62" />
<path
   fill="#ffffff"
   d="m 32.4,22.700001 c -0.2,0 -0.4,0 -0.6,0.1 l -0.6,1.4 c 0.2,-0.1 0.4,-0.1 0.6,0 0.2,0.1 0.4,0 0.6,0 l 0.6,-1.5 c -0.2,0.1 -0.4,0.1 -0.6,0"
   id="path63" />
<path
   fill="#ffffff"
   d="m 31.6,24.700001 c -0.2,-0.1 -0.4,0 -0.6,0 l -0.8,1.3 c 0.2,0 0.4,0 0.6,0.1 0.2,0.1 0.4,0.1 0.6,0.1 l 0.8,-1.4 c -0.3,0 -0.5,0 -0.6,-0.1"
   id="path64" />
<path
   fill="#ffffff"
   d="m 30.4,26.500001 c -0.2,-0.1 -0.4,-0.1 -0.6,-0.1 l -1,1.3 c 0.2,0 0.4,0 0.6,0.1 0.2,0.1 0.4,0.1 0.6,0.1 l 1,-1.3 c -0.2,0.1 -0.4,0 -0.6,-0.1"
   id="path65" />
<path
   fill="#ffffff"
   d="m 29.1,28.200001 c -0.2,-0.1 -0.4,-0.2 -0.6,-0.1 l -1.1,1.1 c 0.2,0 0.4,0.1 0.5,0.2 0.2,0.1 0.3,0.2 0.5,0.2 l 1.2,-1.2 c -0.2,0 -0.4,-0.1 -0.5,-0.2"
   id="path66" />
<path
   fill="#ffffff"
   d="m 27.5,29.700001 c -0.2,-0.1 -0.4,-0.2 -0.6,-0.2 l -1.3,0.9 c 0.2,0 0.4,0.1 0.5,0.3 0.1,0.1 0.3,0.2 0.5,0.3 l 1.3,-1 c -0.1,-0.1 -0.3,-0.2 -0.4,-0.3"
   id="path67" />
<path
   fill="#ffffff"
   d="m 19.2,31.700001 c 0,0.2 0.1,0.4 0.2,0.6 0.4,0 0.9,0.2 1.2,0.5 0,-0.2 0.1,-0.5 0.3,-0.6 0.1,-0.1 0.2,-0.2 0.2,-0.3 -0.5,-0.4 -1.1,-0.6 -1.7,-0.6 -0.1,0 -0.3,0 -0.4,0 0.2,0.1 0.2,0.3 0.2,0.4"
   id="path68" />
<path
   fill="#ffffff"
   d="m 25.8,31.000001 c -0.1,-0.1 -0.3,-0.2 -0.5,-0.3 l -1.4,0.7 c 0.2,0.1 0.4,0.2 0.5,0.4 0.1,0.2 0.3,0.3 0.5,0.3 l 1.4,-0.8 c -0.2,-0.1 -0.4,-0.2 -0.5,-0.3"
   id="path69" />
<path
   fill="#ffffff"
   d="m 23.9,32.000001 c -0.1,-0.2 -0.3,-0.3 -0.5,-0.4 l -1.3,0.6 c 0.2,0.3 0.4,0.6 0.5,1 l 1.8,-0.8 c -0.3,-0.1 -0.4,-0.2 -0.5,-0.4"
   id="path70" />
<path
   fill="#ffffff"
   d="m 17,24.400001 -0.5,-3.2 c -0.4,0 -0.8,0 -1.1,0 -0.2,1.1 -0.6,2.1 -1.4,3 0.7,1.1 1.8,2 3,2.5 1.2,-0.5 2.2,-1.4 3,-2.5 -0.7,-0.8 -1.2,-1.9 -1.4,-3 -0.4,0 -0.8,0 -1.1,0 z"
   id="path71" />
<path
   fill="#ffffff"
   d="m 13.4,20.900001 c 0.5,0.1 1,0.1 1.5,0.2 -0.1,0.6 -0.2,1.1 -0.5,1.6 -0.3,0.5 -0.7,0.9 -1.2,1.1 -0.5,0.2 -1,0.1 -1.4,-0.2 -0.4,-0.3 -0.7,-0.7 -0.8,-1.2 0.6,0.2 1.2,0.1 1.7,-0.1 0.3,-0.1 0.5,-0.4 0.6,-0.6 0.1,-0.3 0.1,-0.5 0.1,-0.8"
   id="path72" />
<path
   fill="#ffffff"
   d="m 20.5,20.900001 c -0.5,0.1 -1,0.1 -1.5,0.2 0.1,0.6 0.2,1.1 0.5,1.6 0.3,0.5 0.7,0.9 1.2,1.1 0.5,0.2 1,0.1 1.4,-0.2 0.4,-0.3 0.7,-0.7 0.8,-1.2 -0.6,0.2 -1.2,0.1 -1.7,-0.1 -0.3,-0.1 -0.5,-0.4 -0.6,-0.6 0,-0.3 -0.1,-0.5 -0.1,-0.8"
   id="path73" />
<path
   fill="#ffffff"
   d="m 12,20.000001 c 0,0.4 2.2,0.8 5,0.8 2.7,0 5,-0.4 5,-0.8 0,-0.4 -2.2,-0.8 -5,-0.8 -2.8,0 -5,0.4 -5,0.8"
   id="path74" />
<path
   fill="#ffffff"
   d="m 17,10.400001 -0.6,8.5 c -0.3,0 -0.7,0 -1,0 -0.1,-0.8 -0.3,-1.5 -0.5,-2.2 -0.3,-0.9 -0.6,-1.8 -1,-2.6 -0.4,-0.8 -0.6,-1.7 -0.8,-2.6 -0.3,-1.4 0.1,-2.9000002 1.1,-3.9000002 0.6,-0.6 1.2,-1.1 1.8,-1.6 0.5,-0.4 0.8,-0.9 1,-1.5 0.2,0.6 0.5,1.1 1,1.5 0.6,0.5 1.2,1.1 1.8,1.6 1,1 1.4,2.5000002 1.1,3.9000002 -0.2,0.9 -0.4,1.7 -0.8,2.6 -0.4,0.9 -0.7,1.7 -1,2.6 -0.3,0.7 -0.4,1.5 -0.5,2.2 -0.3,0 -0.7,0 -1,0 z"
   id="path75" />
<path
   fill="#ffffff"
   d="m 11.3,13.500001 c -0.6,-0.4 -1.3,-0.6 -1.9999998,-0.6 -1.3,0 -2.5,0.8 -3.1,2 -0.3,0.6 -0.4,1.2 -0.4,1.9 0,2 1.5,3.7 3.5,3.9 -0.3,-0.9 0,-2 0.7999998,-2.6 0.5,-0.3 1.1,-0.3 1.6,0 0.5,0.3 0.9,0.6 1.2,1.1 0.7,-0.1 1.3,-0.2 2,-0.3 -0.3,-1.5 -0.9,-2.8 -1.8,-4 -0.5,-0.5 -1.1,-1 -1.8,-1.4 m -2.0999998,2.9 0.3,1.1 -0.9,-0.6 -0.9,0.7 0.3,-1.1 -0.8,-0.8 h 1.1 l 0.3,-1.1 0.3,1.1 H 10 Z"
   id="path76" />
<path
   fill="#ffffff"
   d="m 27.7,14.900001 c -0.6,-1.2 -1.7,-2 -3.1,-2 -0.7,0 -1.4,0.2 -2,0.6 -0.7,0.4 -1.2,0.9 -1.7,1.5 -0.9,1.2 -1.5,2.5 -1.8,4 0.7,0 1.3,0.1 2,0.3 0.3,-0.4 0.7,-0.8 1.2,-1.1 0.5,-0.3 1.1,-0.3 1.6,0 0.8,0.6 1.1,1.6 0.8,2.6 2,-0.2 3.6,-1.9 3.5,-3.9 -0.1,-0.8 -0.2,-1.4 -0.5,-2 m -1.5,2.7 -0.9,-0.6 -0.9,0.6 0.3,-1.1 -0.8,-0.8 H 25 l 0.3,-1.1 0.3,1.1 h 1.2 l -0.9,0.7 z"
   id="path77" />
</svg>
