<?xml version="1.0" encoding="UTF-8" standalone="no"?>
<!-- Created with Inkscape (http://www.inkscape.org/) -->

<svg
   width="1533.7522"
   height="2142.5588"
   viewBox="0 0 405.80527 566.88536"
   version="1.1"
   id="svg1"
   inkscape:version="1.3.2 (091e20ef0f, 2023-11-25, custom)"
   xmlns:inkscape="http://www.inkscape.org/namespaces/inkscape"
   xmlns:sodipodi="http://sodipodi.sourceforge.net/DTD/sodipodi-0.dtd"
   xmlns="http://www.w3.org/2000/svg"
   xmlns:svg="http://www.w3.org/2000/svg">
  <sodipodi:namedview
     id="namedview1"
     pagecolor="#ffffff"
     bordercolor="#000000"
     borderopacity="0.25"
     inkscape:showpageshadow="2"
     inkscape:pageopacity="0.0"
     inkscape:pagecheckerboard="0"
     inkscape:deskcolor="#d1d1d1"
     inkscape:document-units="mm"
     showgrid="false"
     inkscape:zoom="0.17368071"
     inkscape:cx="1355.9364"
     inkscape:cy="1338.6633"
     inkscape:window-width="1916"
     inkscape:window-height="1021"
     inkscape:window-x="0"
     inkscape:window-y="0"
     inkscape:window-maximized="0"
     inkscape:current-layer="layer1" />
  <defs
     id="defs1">
    <clipPath
       clipPathUnits="userSpaceOnUse"
       id="clipPath2">
      <path
         d="M 0,2001.26 H 2851.654 V 0 H 0 Z"
         transform="translate(-1586.6271,-889.96366)"
         id="path2" />
    </clipPath>
    <clipPath
       clipPathUnits="userSpaceOnUse"
       id="clipPath4">
      <path
         d="M 0,2001.26 H 2851.654 V 0 H 0 Z"
         transform="translate(-1594.4851,-1107.5699)"
         id="path4" />
    </clipPath>
    <clipPath
       clipPathUnits="userSpaceOnUse"
       id="clipPath6">
      <path
         d="M 0,2001.26 H 2851.654 V 0 H 0 Z"
         transform="translate(-1045.256,-1043.0352)"
         id="path6" />
    </clipPath>
    <clipPath
       clipPathUnits="userSpaceOnUse"
       id="clipPath8">
      <path
         d="M 0,2001.26 H 2851.654 V 0 H 0 Z"
         transform="translate(-1061.8071,-1022.3943)"
         id="path8" />
    </clipPath>
    <clipPath
       clipPathUnits="userSpaceOnUse"
       id="clipPath10">
      <path
         d="M 0,2001.26 H 2851.654 V 0 H 0 Z"
         transform="translate(-1345.8748,-1092.603)"
         id="path10" />
    </clipPath>
    <clipPath
       clipPathUnits="userSpaceOnUse"
       id="clipPath12">
      <path
         d="M 0,2001.26 H 2851.654 V 0 H 0 Z"
         transform="translate(-1026.5,-1202.1293)"
         id="path12" />
    </clipPath>
    <clipPath
       clipPathUnits="userSpaceOnUse"
       id="clipPath14">
      <path
         d="M 0,2001.26 H 2851.654 V 0 H 0 Z"
         transform="translate(-1068.1062,-1196.4419)"
         id="path14" />
    </clipPath>
    <clipPath
       clipPathUnits="userSpaceOnUse"
       id="clipPath16">
      <path
         d="M 0,2001.26 H 2851.654 V 0 H 0 Z"
         transform="translate(-1108.7653,-1200.2621)"
         id="path16" />
    </clipPath>
    <clipPath
       clipPathUnits="userSpaceOnUse"
       id="clipPath18">
      <path
         d="M 0,2001.26 H 2851.654 V 0 H 0 Z"
         transform="translate(-1142.3098,-1263.7754)"
         id="path18" />
    </clipPath>
    <clipPath
       clipPathUnits="userSpaceOnUse"
       id="clipPath20">
      <path
         d="M 0,2001.26 H 2851.654 V 0 H 0 Z"
         transform="translate(-1214.8615,-1263.7797)"
         id="path20" />
    </clipPath>
    <clipPath
       clipPathUnits="userSpaceOnUse"
       id="clipPath22">
      <path
         d="M 0,2001.26 H 2851.654 V 0 H 0 Z"
         transform="translate(-1165.0826,-1228.094)"
         id="path22" />
    </clipPath>
    <clipPath
       clipPathUnits="userSpaceOnUse"
       id="clipPath24">
      <path
         d="M 0,2001.26 H 2851.654 V 0 H 0 Z"
         transform="translate(-1302.1555,-1264.9987)"
         id="path24" />
    </clipPath>
    <clipPath
       clipPathUnits="userSpaceOnUse"
       id="clipPath26">
      <path
         d="M 0,2001.26 H 2851.654 V 0 H 0 Z"
         transform="translate(-1315.1677,-1227.9341)"
         id="path26" />
    </clipPath>
    <clipPath
       clipPathUnits="userSpaceOnUse"
       id="clipPath28">
      <path
         d="M 0,2001.26 H 2851.654 V 0 H 0 Z"
         transform="translate(-1380.3539,-1256.9589)"
         id="path28" />
    </clipPath>
    <clipPath
       clipPathUnits="userSpaceOnUse"
       id="clipPath30">
      <path
         d="M 0,2001.26 H 2851.654 V 0 H 0 Z"
         transform="translate(-1431.0256,-1249.3278)"
         id="path30" />
    </clipPath>
    <clipPath
       clipPathUnits="userSpaceOnUse"
       id="clipPath32">
      <path
         d="M 0,2001.26 H 2851.654 V 0 H 0 Z"
         transform="translate(-1435.8673,-1248.4266)"
         id="path32" />
    </clipPath>
    <clipPath
       clipPathUnits="userSpaceOnUse"
       id="clipPath34">
      <path
         d="M 0,2001.26 H 2851.654 V 0 H 0 Z"
         transform="translate(-1497.6442,-1192.6101)"
         id="path34" />
    </clipPath>
    <clipPath
       clipPathUnits="userSpaceOnUse"
       id="clipPath36">
      <path
         d="M 0,2001.26 H 2851.654 V 0 H 0 Z"
         transform="translate(-1515.4885,-1207.6004)"
         id="path36" />
    </clipPath>
    <clipPath
       clipPathUnits="userSpaceOnUse"
       id="clipPath38">
      <path
         d="M 0,2001.26 H 2851.654 V 0 H 0 Z"
         transform="translate(-1601.1867,-450.55462)"
         id="path38" />
    </clipPath>
    <clipPath
       clipPathUnits="userSpaceOnUse"
       id="clipPath40">
      <path
         d="M 0,2001.26 H 2851.654 V 0 H 0 Z"
         transform="translate(-1035.772,-210.91582)"
         id="path40" />
    </clipPath>
    <clipPath
       clipPathUnits="userSpaceOnUse"
       id="clipPath42">
      <path
         d="M 0,2001.26 H 2851.654 V 0 H 0 Z"
         transform="translate(-1077.8036,-228.38054)"
         id="path42" />
    </clipPath>
    <clipPath
       clipPathUnits="userSpaceOnUse"
       id="clipPath44">
      <path
         d="M 0,2001.26 H 2851.654 V 0 H 0 Z"
         transform="translate(-1236.7662,-223.02134)"
         id="path44" />
    </clipPath>
    <clipPath
       clipPathUnits="userSpaceOnUse"
       id="clipPath46">
      <path
         d="M 0,2001.26 H 2851.654 V 0 H 0 Z"
         transform="translate(-1317.8105,-223.02134)"
         id="path46" />
    </clipPath>
    <clipPath
       clipPathUnits="userSpaceOnUse"
       id="clipPath48">
      <path
         d="M 0,2001.26 H 2851.654 V 0 H 0 Z"
         transform="translate(-1343.0634,-212.66684)"
         id="path48" />
    </clipPath>
    <clipPath
       clipPathUnits="userSpaceOnUse"
       id="clipPath50">
      <path
         d="M 0,2001.26 H 2851.654 V 0 H 0 Z"
         transform="translate(-1371.5559,-231.01312)"
         id="path50" />
    </clipPath>
    <clipPath
       clipPathUnits="userSpaceOnUse"
       id="clipPath52">
      <path
         d="M 0,2001.26 H 2851.654 V 0 H 0 Z"
         transform="translate(-1477.0126,-282.01409)"
         id="path52" />
    </clipPath>
    <clipPath
       clipPathUnits="userSpaceOnUse"
       id="clipPath54">
      <path
         d="M 0,2001.26 H 2851.654 V 0 H 0 Z"
         transform="translate(-1525.8057,-205.13099)"
         id="path54" />
    </clipPath>
  </defs>
  <g
     inkscape:label="Layer 1"
     inkscape:groupmode="layer"
     id="layer1"
     transform="translate(97.895813,134.9375)">
    <path
       id="path1"
       d="m 0,0 c -4.111,-114.081 -7.965,-226.321 -10.599,-304.816 l 1.649,-1.263 C -6.852,-227.391 -3.704,-114.659 0.021,0 0.085,2.034 0.15,4.068 0.214,6.102 0.15,4.068 0.064,2.034 0,0 M 26.101,10.128 C 29.976,116.907 34.045,224.351 37.556,306.186 33.552,224.158 29.591,116.779 26.101,10.128"
       style="fill:#ffffff;fill-opacity:1;fill-rule:nonzero;stroke:none"
       transform="matrix(0.35277776,0,0,-0.35277776,161.73365,187.54582)"
       clip-path="url(#clipPath2)" />
    <path
       id="path3"
       d="M 0,0 C 0.107,-0.021 0.214,-0.064 0.321,-0.086 1.67,33.83 2.976,65.669 4.218,94.275 2.805,65.626 1.392,33.83 0,0"
       style="fill:#ffffff;fill-opacity:1;fill-rule:nonzero;stroke:none"
       transform="matrix(0.35277776,0,0,-0.35277776,164.5058,110.77919)"
       clip-path="url(#clipPath4)" />
    <path
       id="path5"
       d="m 0,0 -16.23,-5.224 1.563,23.681 z"
       style="fill:#ffffff;fill-opacity:1;fill-rule:nonzero;stroke:none"
       transform="matrix(0.35277776,0,0,-0.35277776,-29.250001,133.54558)"
       clip-path="url(#clipPath6)" />
    <path
       id="path7"
       d="m 0,0 c 4.967,-6.252 6.552,-13.489 4.453,-20.384 -2.098,-6.937 -7.815,-12.504 -15.287,-14.902 -15.888,-5.118 -27.514,1.67 -38.049,15.48 l 24.11,7.751 -1.37,6.253 c -3.277,-0.407 -4.262,0.042 -4.818,0.535 -1.071,1.006 -2.291,4.004 -2.184,12.568 l 21.69,6.959 z"
       style="fill:#ffffff;fill-opacity:1;fill-rule:nonzero;stroke:none"
       transform="matrix(0.35277776,0,0,-0.35277776,-23.41115,140.82723)"
       clip-path="url(#clipPath8)" />
    <path
       id="path9"
       d="m 0,0 -0.3,0.043 c -0.899,0.107 -1.605,0.15 -2.141,0.15 -1.242,0 -1.627,-0.257 -1.884,-0.514 -0.942,-0.985 -1.734,-3.769 -2.313,-8.286 l -7.301,-57.512 2.334,0.407 0.171,1.306 2.634,0.171 C 9.657,-63.036 18.607,-45.5 19.078,-29.698 19.506,-16.187 13.768,-1.756 0,0 M 68.389,-27.107 56.998,-47.769 73.87,-49.911 Z m 11.733,-48.562 -4.218,17.815 -22.717,2.89 c -2.763,-5.909 -3.747,-9.87 -2.913,-11.819 0.536,-1.242 2.142,-2.184 5.589,-3.254 l -1.371,-6.252 -30.447,3.875 c 5.096,-4.111 9.122,-9.143 12.89,-13.896 6.873,-8.565 12.783,-15.973 23.168,-17.301 6.68,-0.856 12.268,0.985 16.101,5.289 4.732,5.31 6.145,13.553 3.918,22.653 m 0,0 -4.218,17.815 -22.717,2.89 c -2.763,-5.909 -3.747,-9.87 -2.913,-11.819 0.536,-1.242 2.142,-2.184 5.589,-3.254 l -1.371,-6.252 -30.447,3.875 c 5.096,-4.111 9.122,-9.143 12.89,-13.896 6.873,-8.565 12.783,-15.973 23.168,-17.301 6.68,-0.856 12.268,0.985 16.101,5.289 4.732,5.31 6.145,13.553 3.918,22.653 M 68.389,-27.107 56.998,-47.769 73.87,-49.911 Z M 0,0 -0.3,0.043 c -0.899,0.107 -1.605,0.15 -2.141,0.15 -1.242,0 -1.627,-0.257 -1.884,-0.514 -0.942,-0.985 -1.734,-3.769 -2.313,-8.286 l -7.301,-57.512 2.334,0.407 0.171,1.306 2.634,0.171 C 9.657,-63.036 18.607,-45.5 19.078,-29.698 19.506,-16.187 13.768,-1.756 0,0 m 0,0 -0.3,0.043 c -0.899,0.107 -1.605,0.15 -2.141,0.15 -1.242,0 -1.627,-0.257 -1.884,-0.514 -0.942,-0.985 -1.734,-3.769 -2.313,-8.286 l -7.301,-57.512 2.334,0.407 0.171,1.306 2.634,0.171 C 9.657,-63.036 18.607,-45.5 19.078,-29.698 19.506,-16.187 13.768,-1.756 0,0 M 68.389,-27.107 56.998,-47.769 73.87,-49.911 Z m 11.733,-48.562 -4.218,17.815 -22.717,2.89 c -2.763,-5.909 -3.747,-9.87 -2.913,-11.819 0.536,-1.242 2.142,-2.184 5.589,-3.254 l -1.371,-6.252 -30.447,3.875 c 5.096,-4.111 9.122,-9.143 12.89,-13.896 6.873,-8.565 12.783,-15.973 23.168,-17.301 6.68,-0.856 12.268,0.985 16.101,5.289 4.732,5.31 6.145,13.553 3.918,22.653 m 0,0 -4.218,17.815 -22.717,2.89 c -2.763,-5.909 -3.747,-9.87 -2.913,-11.819 0.536,-1.242 2.142,-2.184 5.589,-3.254 l -1.371,-6.252 -30.447,3.875 c 5.096,-4.111 9.122,-9.143 12.89,-13.896 6.873,-8.565 12.783,-15.973 23.168,-17.301 6.68,-0.856 12.268,0.985 16.101,5.289 4.732,5.31 6.145,13.553 3.918,22.653 M 68.389,-27.107 56.998,-47.769 73.87,-49.911 Z M 0,0 -0.3,0.043 c -0.899,0.107 -1.605,0.15 -2.141,0.15 -1.242,0 -1.627,-0.257 -1.884,-0.514 -0.942,-0.985 -1.734,-3.769 -2.313,-8.286 l -7.301,-57.512 2.334,0.407 0.171,1.306 2.634,0.171 C 9.657,-63.036 18.607,-45.5 19.078,-29.698 19.506,-16.187 13.768,-1.756 0,0 m 0,0 -0.3,0.043 c -0.899,0.107 -1.605,0.15 -2.141,0.15 -1.242,0 -1.627,-0.257 -1.884,-0.514 -0.942,-0.985 -1.734,-3.769 -2.313,-8.286 l -7.301,-57.512 2.334,0.407 0.171,1.306 2.634,0.171 C 9.657,-63.036 18.607,-45.5 19.078,-29.698 19.506,-16.187 13.768,-1.756 0,0 M 68.389,-27.107 56.998,-47.769 73.87,-49.911 Z m 11.733,-48.562 -4.218,17.815 -22.717,2.89 c -2.763,-5.909 -3.747,-9.87 -2.913,-11.819 0.536,-1.242 2.142,-2.184 5.589,-3.254 l -1.371,-6.252 -30.447,3.875 c 5.096,-4.111 9.122,-9.143 12.89,-13.896 6.873,-8.565 12.783,-15.973 23.168,-17.301 6.68,-0.856 12.268,0.985 16.101,5.289 4.732,5.31 6.145,13.553 3.918,22.653 m 0,0 -4.218,17.815 -22.717,2.89 c -2.763,-5.909 -3.747,-9.87 -2.913,-11.819 0.536,-1.242 2.142,-2.184 5.589,-3.254 l -1.371,-6.252 -30.447,3.875 c 5.096,-4.111 9.122,-9.143 12.89,-13.896 6.873,-8.565 12.783,-15.973 23.168,-17.301 6.68,-0.856 12.268,0.985 16.101,5.289 4.732,5.31 6.145,13.553 3.918,22.653 M 68.389,-27.107 56.998,-47.769 73.87,-49.911 Z M 0,0 -0.3,0.043 c -0.899,0.107 -1.605,0.15 -2.141,0.15 -1.242,0 -1.627,-0.257 -1.884,-0.514 -0.942,-0.985 -1.734,-3.769 -2.313,-8.286 l -7.301,-57.512 2.334,0.407 0.171,1.306 2.634,0.171 C 9.657,-63.036 18.607,-45.5 19.078,-29.698 19.506,-16.187 13.768,-1.756 0,0 m 0,0 -0.3,0.043 c -0.899,0.107 -1.605,0.15 -2.141,0.15 -1.242,0 -1.627,-0.257 -1.884,-0.514 -0.942,-0.985 -1.734,-3.769 -2.313,-8.286 l -7.301,-57.512 2.334,0.407 0.171,1.306 2.634,0.171 C 9.657,-63.036 18.607,-45.5 19.078,-29.698 19.506,-16.187 13.768,-1.756 0,0 M 68.389,-27.107 56.998,-47.769 73.87,-49.911 Z m 11.733,-48.562 -4.218,17.815 -22.717,2.89 c -2.763,-5.909 -3.747,-9.87 -2.913,-11.819 0.536,-1.242 2.142,-2.184 5.589,-3.254 l -1.371,-6.252 -30.447,3.875 c 5.096,-4.111 9.122,-9.143 12.89,-13.896 6.873,-8.565 12.783,-15.973 23.168,-17.301 6.68,-0.856 12.268,0.985 16.101,5.289 4.732,5.31 6.145,13.553 3.918,22.653 m 160.63,-126.97 h 0.021 c 0.065,2.034 0.129,4.068 0.193,6.102 -0.064,-2.034 -0.15,-4.068 -0.214,-6.102 M 0,0 -0.3,0.043 c -0.899,0.107 -1.605,0.15 -2.141,0.15 -1.242,0 -1.627,-0.257 -1.884,-0.514 -0.942,-0.985 -1.734,-3.769 -2.313,-8.286 l -7.301,-57.512 2.334,0.407 0.171,1.306 2.634,0.171 C 9.657,-63.036 18.607,-45.5 19.078,-29.698 19.506,-16.187 13.768,-1.756 0,0 M 68.389,-27.107 56.998,-47.769 73.87,-49.911 Z m 11.733,-48.562 -4.218,17.815 -22.717,2.89 c -2.763,-5.909 -3.747,-9.87 -2.913,-11.819 0.536,-1.242 2.142,-2.184 5.589,-3.254 l -1.371,-6.252 -30.447,3.875 c 5.096,-4.111 9.122,-9.143 12.89,-13.896 6.873,-8.565 12.783,-15.973 23.168,-17.301 6.68,-0.856 12.268,0.985 16.101,5.289 4.732,5.31 6.145,13.553 3.918,22.653 m 0,0 -4.218,17.815 -22.717,2.89 c -2.763,-5.909 -3.747,-9.87 -2.913,-11.819 0.536,-1.242 2.142,-2.184 5.589,-3.254 l -1.371,-6.252 -30.447,3.875 c 5.096,-4.111 9.122,-9.143 12.89,-13.896 6.873,-8.565 12.783,-15.973 23.168,-17.301 6.68,-0.856 12.268,0.985 16.101,5.289 4.732,5.31 6.145,13.553 3.918,22.653 M 68.389,-27.107 56.998,-47.769 73.87,-49.911 Z M 0,0 -0.3,0.043 c -0.899,0.107 -1.605,0.15 -2.141,0.15 -1.242,0 -1.627,-0.257 -1.884,-0.514 -0.942,-0.985 -1.734,-3.769 -2.313,-8.286 l -7.301,-57.512 2.334,0.407 0.171,1.306 2.634,0.171 C 9.657,-63.036 18.607,-45.5 19.078,-29.698 19.506,-16.187 13.768,-1.756 0,0 m 0,0 -0.3,0.043 c -0.899,0.107 -1.605,0.15 -2.141,0.15 -1.242,0 -1.627,-0.257 -1.884,-0.514 -0.942,-0.985 -1.734,-3.769 -2.313,-8.286 l -7.301,-57.512 2.334,0.407 0.171,1.306 2.634,0.171 C 9.657,-63.036 18.607,-45.5 19.078,-29.698 19.506,-16.187 13.768,-1.756 0,0 M 68.389,-27.107 56.998,-47.769 73.87,-49.911 Z m 11.733,-48.562 -4.218,17.815 -22.717,2.89 c -2.763,-5.909 -3.747,-9.87 -2.913,-11.819 0.536,-1.242 2.142,-2.184 5.589,-3.254 l -1.371,-6.252 -30.447,3.875 c 5.096,-4.111 9.122,-9.143 12.89,-13.896 6.873,-8.565 12.783,-15.973 23.168,-17.301 6.68,-0.856 12.268,0.985 16.101,5.289 4.732,5.31 6.145,13.553 3.918,22.653 m 0,0 -4.218,17.815 -22.717,2.89 c -2.763,-5.909 -3.747,-9.87 -2.913,-11.819 0.536,-1.242 2.142,-2.184 5.589,-3.254 l -1.371,-6.252 -30.447,3.875 c 5.096,-4.111 9.122,-9.143 12.89,-13.896 6.873,-8.565 12.783,-15.973 23.168,-17.301 6.68,-0.856 12.268,0.985 16.101,5.289 4.732,5.31 6.145,13.553 3.918,22.653 M 68.389,-27.107 56.998,-47.769 73.87,-49.911 Z M 0,0 -0.3,0.043 c -0.899,0.107 -1.605,0.15 -2.141,0.15 -1.242,0 -1.627,-0.257 -1.884,-0.514 -0.942,-0.985 -1.734,-3.769 -2.313,-8.286 l -7.301,-57.512 2.334,0.407 0.171,1.306 2.634,0.171 C 9.657,-63.036 18.607,-45.5 19.078,-29.698 19.506,-16.187 13.768,-1.756 0,0 m 0,0 -0.3,0.043 c -0.899,0.107 -1.605,0.15 -2.141,0.15 -1.242,0 -1.627,-0.257 -1.884,-0.514 -0.942,-0.985 -1.734,-3.769 -2.313,-8.286 l -7.301,-57.512 2.334,0.407 0.171,1.306 2.634,0.171 C 9.657,-63.036 18.607,-45.5 19.078,-29.698 19.506,-16.187 13.768,-1.756 0,0 M 68.389,-27.107 56.998,-47.769 73.87,-49.911 Z m 11.733,-48.562 -4.218,17.815 -22.717,2.89 c -2.763,-5.909 -3.747,-9.87 -2.913,-11.819 0.536,-1.242 2.142,-2.184 5.589,-3.254 l -1.371,-6.252 -30.447,3.875 c 5.096,-4.111 9.122,-9.143 12.89,-13.896 6.873,-8.565 12.783,-15.973 23.168,-17.301 6.68,-0.856 12.268,0.985 16.101,5.289 4.732,5.31 6.145,13.553 3.918,22.653 m 0,0 -4.218,17.815 -22.717,2.89 c -2.763,-5.909 -3.747,-9.87 -2.913,-11.819 0.536,-1.242 2.142,-2.184 5.589,-3.254 l -1.371,-6.252 -30.447,3.875 c 5.096,-4.111 9.122,-9.143 12.89,-13.896 6.873,-8.565 12.783,-15.973 23.168,-17.301 6.68,-0.856 12.268,0.985 16.101,5.289 4.732,5.31 6.145,13.553 3.918,22.653 M 68.389,-27.107 56.998,-47.769 73.87,-49.911 Z M 0,0 -0.3,0.043 c -0.899,0.107 -1.605,0.15 -2.141,0.15 -1.242,0 -1.627,-0.257 -1.884,-0.514 -0.942,-0.985 -1.734,-3.769 -2.313,-8.286 l -7.301,-57.512 2.334,0.407 0.171,1.306 2.634,0.171 C 9.657,-63.036 18.607,-45.5 19.078,-29.698 19.506,-16.187 13.768,-1.756 0,0 m 0,0 -0.3,0.043 c -0.899,0.107 -1.605,0.15 -2.141,0.15 -1.242,0 -1.627,-0.257 -1.884,-0.514 -0.942,-0.985 -1.734,-3.769 -2.313,-8.286 l -7.301,-57.512 2.334,0.407 0.171,1.306 2.634,0.171 C 9.657,-63.036 18.607,-45.5 19.078,-29.698 19.506,-16.187 13.768,-1.756 0,0 M 68.389,-27.107 56.998,-47.769 73.87,-49.911 Z m 11.733,-48.562 -4.218,17.815 -22.717,2.89 c -2.763,-5.909 -3.747,-9.87 -2.913,-11.819 0.536,-1.242 2.142,-2.184 5.589,-3.254 l -1.371,-6.252 -30.447,3.875 c 5.096,-4.111 9.122,-9.143 12.89,-13.896 6.873,-8.565 12.783,-15.973 23.168,-17.301 6.68,-0.856 12.268,0.985 16.101,5.289 4.732,5.31 6.145,13.553 3.918,22.653 m 0,0 -4.218,17.815 -22.717,2.89 c -2.763,-5.909 -3.747,-9.87 -2.913,-11.819 0.536,-1.242 2.142,-2.184 5.589,-3.254 l -1.371,-6.252 -30.447,3.875 c 5.096,-4.111 9.122,-9.143 12.89,-13.896 6.873,-8.565 12.783,-15.973 23.168,-17.301 6.68,-0.856 12.268,0.985 16.101,5.289 4.732,5.31 6.145,13.553 3.918,22.653 M 68.389,-27.107 56.998,-47.769 73.87,-49.911 Z M 0,0 -0.3,0.043 c -0.899,0.107 -1.605,0.15 -2.141,0.15 -1.242,0 -1.627,-0.257 -1.884,-0.514 -0.942,-0.985 -1.734,-3.769 -2.313,-8.286 l -7.301,-57.512 2.334,0.407 0.171,1.306 2.634,0.171 C 9.657,-63.036 18.607,-45.5 19.078,-29.698 19.506,-16.187 13.768,-1.756 0,0"
       style="fill:#ffffff;fill-opacity:1;fill-rule:nonzero;stroke:none"
       transform="matrix(0.35277776,0,0,-0.35277776,76.801612,116.05916)"
       clip-path="url(#clipPath10)" />
    <path
       id="path11"
       d="m 0,0 -0.511,-1.579 c -2.176,-6.726 -7.436,-11.819 -14.431,-13.973 -10.367,-3.194 -23.844,0.896 -28.927,17.409 -4.64,15.076 2.728,24.731 12.087,27.612 4.463,1.373 8.93,0.988 12.252,-1.058 2.823,-1.74 4.648,-4.628 5.281,-8.354 l 4.245,0.534 -1.067,12.845 -1.284,0.47 c -7.019,2.574 -14.391,2.803 -21.32,0.669 -7.662,-2.356 -14.002,-7.355 -17.856,-14.072 -4.119,-7.18 -4.948,-15.812 -2.335,-24.303 4.535,-14.734 16.679,-21.275 28.488,-21.275 3.179,0 6.334,0.475 9.309,1.39 9.898,3.046 17.299,10.628 20.306,20.8 L 5,-0.302 Z"
       style="fill:#ffffff;fill-opacity:1;fill-rule:nonzero;stroke:none"
       transform="matrix(0.35277776,0,0,-0.35277776,-35.866701,77.420704)"
       clip-path="url(#clipPath12)" />
    <path
       id="path13"
       d="m 0,0 -0.726,13.008 -4.269,0.086 C -5.024,12.796 -5.041,12.415 -5.06,11.97 -5.213,8.396 -5.498,1.745 -14.317,-0.28 l -2.705,-0.621 c -0.971,-0.223 -3.929,-0.898 -4.547,-0.528 -0.478,0.285 -1.019,2.64 -1.25,3.645 l -4.195,18.278 7.756,1.78 c 2.369,0.549 3.294,-0.593 4.707,-4.07 l 0.167,-0.411 4.067,1.295 -3.398,14.804 -4.223,-0.618 0.028,-0.407 c 0.258,-3.762 -0.075,-5.195 -2.46,-5.743 l -7.758,-1.78 -4.528,19.722 6.631,1.522 c 8.828,2.02 11.977,-3.837 13.671,-6.985 0.212,-0.393 0.394,-0.728 0.549,-0.984 l 3.806,1.938 -5.807,13.942 -33.697,-7.735 0.678,-4.219 c 2.863,0.27 3.941,0.369 5.023,-4.343 l 8.729,-38.023 c 1.081,-4.71 0.072,-5.089 -2.626,-6.099 l 1.229,-4.092 34.946,8.022 z"
       style="fill:#ffffff;fill-opacity:1;fill-rule:nonzero;stroke:none"
       transform="matrix(0.35277776,0,0,-0.35277776,-21.188968,79.427119)"
       clip-path="url(#clipPath14)" />
    <path
       id="path15"
       d="m 0,0 -7.49,45.164 c -0.921,5.559 0.534,9.163 2.372,9.73 l -0.982,4.158 -12.018,-1.992 0.412,-4.252 c 0.017,0 0.035,10e-4 0.053,10e-4 1.915,0 4.417,-2.939 5.331,-8.447 l 3.582,-21.604 -25.644,31.604 -19.091,-3.164 7.283,-1.467 c 2.249,-0.317 4.821,-2.68 5.881,-9.072 L -35.04,8.867 c 0.933,-5.627 -0.484,-9.153 -2.364,-9.728 l 0.976,-4.16 12.018,1.992 -0.412,4.252 c -0.017,0 -0.033,-0.001 -0.051,-0.001 -1.879,0 -4.343,2.943 -5.258,8.458 l -4.605,27.782 30.704,-38.127 z"
       style="fill:#ffffff;fill-opacity:1;fill-rule:nonzero;stroke:none"
       transform="matrix(0.35277776,0,0,-0.35277776,-6.8453497,78.079438)"
       clip-path="url(#clipPath16)" />
    <path
       id="path17"
       d="m 0,0 -33.461,-3.724 -0.878,-15.076 4.232,-0.573 c 0.063,0.294 0.123,0.669 0.193,1.109 0.515,3.237 1.435,9.028 8.561,10.75 l 4.814,-43.253 c 0.535,-4.802 -0.512,-5.061 -3.308,-5.755 l 0.754,-4.206 17.622,1.961 -0.184,4.268 c -2.75,0.068 -3.888,0.096 -4.423,4.898 l -4.814,43.256 c 7.164,-0.116 9.403,-5.504 10.654,-8.514 0.198,-0.478 0.369,-0.882 0.519,-1.186 l 3.973,1.554 z"
       style="fill:#ffffff;fill-opacity:1;fill-rule:nonzero;stroke:none"
       transform="matrix(0.35277776,0,0,-0.35277776,4.9884043,55.673333)"
       clip-path="url(#clipPath18)" />
    <path
       id="path19"
       d="m 0,0 c 2.973,0 5.812,-1.388 8.028,-3.935 2.766,-3.176 4.338,-7.875 4.548,-13.587 0.456,-12.345 -5.696,-18.202 -11.604,-18.42 -3.092,-0.14 -6.076,1.28 -8.38,3.927 -2.766,3.177 -4.338,7.876 -4.548,13.587 -0.456,12.345 5.696,18.203 11.604,18.421 C -0.234,-0.002 -0.117,0 0,0 m -14.777,-35.755 c 4.069,-3.357 9.353,-5.178 14.969,-5.178 0.32,0 0.642,0.006 0.964,0.018 H 1.155 c 11.4,0.421 22.651,8.726 22.096,23.786 -0.261,7.055 -2.977,12.91 -7.854,16.933 -4.301,3.549 -9.967,5.39 -15.934,5.162 -5.974,-0.221 -11.482,-2.465 -15.51,-6.321 -4.568,-4.372 -6.844,-10.412 -6.584,-17.466 0.261,-7.055 2.976,-12.91 7.854,-16.934"
       style="fill:#ffffff;fill-opacity:1;fill-rule:nonzero;stroke:none"
       transform="matrix(0.35277776,0,0,-0.35277776,30.583032,55.671817)"
       clip-path="url(#clipPath20)" />
    <path
       id="path21"
       d="m 0,0 0.029,-0.817 -0.111,-0.038 -1.075,29.173 c -0.11,2.956 0.184,3.846 0.368,4.114 0.05,0.073 0.311,0.248 1.723,0.3 0.126,0.005 0.252,0.007 0.376,0.007 6.586,0 9.879,-6.476 10.697,-12.11 C 13.199,12.432 9.98,2.568 1.669,0.429 Z m 64.932,-6.643 c -4.349,-3.09 -8.549,-4.669 -12.841,-4.827 -6.477,-0.259 -12.477,2.844 -18.846,6.107 -5.579,2.86 -11.294,5.788 -17.754,6.809 6.781,5.314 8.85,13.212 7.577,19.891 -1.627,8.528 -9.175,16.88 -22.317,16.368 L -15.66,37.1 -15.786,32.828 c 2.868,-0.275 3.942,-0.378 4.119,-5.206 l 1.185,-32.116 -1.803,-0.631 1.817,0.226 0.239,-6.462 c 0.179,-4.828 -0.884,-5.01 -3.722,-5.495 l 0.44,-4.251 17.795,0.656 0.125,4.272 c -2.867,0.274 -3.94,0.376 -4.117,5.205 l -0.273,7.377 0.111,0.014 0.032,-0.889 2.47,0.497 c 6.554,1.318 13.185,-2.727 20.213,-7.006 7.507,-4.575 15.265,-9.312 24.468,-8.963 7.006,0.26 13.728,3.425 20.549,9.678 l 1.485,1.363 -2.778,3.425 z"
       style="fill:#ffffff;fill-opacity:1;fill-rule:nonzero;stroke:none"
       transform="matrix(0.35277776,0,0,-0.35277776,13.02216,68.260935)"
       clip-path="url(#clipPath22)" />
    <path
       id="path23"
       d="m 0,0 -12.162,0.614 -0.504,-4.243 c 1.889,-0.354 3.743,-3.768 3.459,-9.395 l -1.104,-21.86 -18.311,36.329 -18.25,0.178 6.259,-2.941 c 2.129,-0.787 3.607,-2.889 3.281,-9.359 l -1.625,-32.174 c -0.288,-5.694 -2.422,-8.837 -4.383,-8.998 l 0.068,-4.272 12.163,-0.615 0.503,4.243 c -1.851,0.348 -3.666,3.759 -3.382,9.391 l 1.42,28.112 21.866,-43.781 4.08,-0.203 2.307,45.705 c 0.285,5.624 2.474,8.834 4.39,8.997 z"
       style="fill:#ffffff;fill-opacity:1;fill-rule:nonzero;stroke:none"
       transform="matrix(0.35277776,0,0,-0.35277776,61.378414,55.241782)"
       clip-path="url(#clipPath24)" />
    <path
       id="path25"
       d="M 0,0 6.997,16.932 10.731,-0.959 Z M 24.22,-13.648 13.234,35.887 9.724,36.202 -7.546,-5.399 c -4.638,-11.193 -5.791,-11.184 -10.661,-11.169 l -0.199,-4.274 16.354,-1.461 0.567,4.24 c -1.684,0.301 -3.426,0.614 -3.801,1.3 -0.347,0.636 -0.537,2.65 2.105,9.017 l 1.202,3.005 13.796,-1.233 1.574,-7.606 c 0.465,-2.167 0.387,-3.713 -0.224,-4.471 -0.669,-0.828 -2.281,-1.005 -3.515,-1.007 l -0.187,-4.274 21.882,-1.955 0.597,4.235 c -5.176,1.002 -6.448,1.465 -7.724,7.404"
       style="fill:#ffffff;fill-opacity:1;fill-rule:nonzero;stroke:none"
       transform="matrix(0.35277776,0,0,-0.35277776,65.968829,68.317371)"
       clip-path="url(#clipPath26)" />
    <path
       id="path27"
       d="M 0,0 -0.808,-4.196 C 1.094,-4.694 2.65,-8.16 1.945,-13.818 l -3.282,-26.311 c -0.505,-4.049 -2.154,-7.29 -4.769,-9.373 -2.243,-1.789 -5.142,-2.611 -7.963,-2.26 -2.746,0.343 -5.147,1.746 -6.762,3.952 -1.902,2.599 -2.632,6.186 -2.109,10.376 l 3.758,30.134 c 0.599,4.794 1.676,4.803 4.557,4.828 l 0.245,4.266 -17.666,2.204 -0.809,-4.196 c 2.785,-0.731 3.827,-1.004 3.23,-5.799 l -3.757,-30.119 c -0.74,-5.62 0.476,-10.67 3.517,-14.603 2.939,-3.803 7.522,-6.346 12.572,-6.975 h -0.001 c 0.824,-0.104 1.648,-0.154 2.467,-0.154 4.241,0 8.34,1.359 11.526,3.873 3.895,3.072 6.282,7.658 6.901,13.231 l 3.281,26.31 c 0.7,5.596 3.079,8.64 4.963,8.662 l 0.24,4.265 z"
       style="fill:#ffffff;fill-opacity:1;fill-rule:nonzero;stroke:none"
       transform="matrix(0.35277776,0,0,-0.35277776,88.96509,58.078044)"
       clip-path="url(#clipPath28)" />
    <path
       id="path29"
       d="m 0,0 -33.248,5.265 -4.835,-14.302 3.929,-1.672 c 0.138,0.266 0.296,0.612 0.48,1.016 1.351,2.983 3.721,8.345 11.097,8.099 l -6.807,-42.975 c -0.754,-4.771 -1.827,-4.739 -4.71,-4.675 l -0.387,-4.255 17.508,-2.772 0.952,4.165 c -2.633,0.792 -3.722,1.121 -2.966,5.891 l 6.807,42.979 c 6.875,-2.007 7.607,-7.795 8.017,-11.028 0.065,-0.513 0.122,-0.948 0.187,-1.281 l 4.243,0.446 z"
       style="fill:#ffffff;fill-opacity:1;fill-rule:nonzero;stroke:none"
       transform="matrix(0.35277776,0,0,-0.35277776,106.84092,60.770126)"
       clip-path="url(#clipPath30)" />
    <path
       id="path31"
       d="m 0,0 -1.036,-4.145 c 2.742,-0.882 3.769,-1.212 2.912,-5.967 l -6.928,-38.386 c -0.858,-4.756 -1.936,-4.709 -4.812,-4.574 l -0.479,-4.246 17.448,-3.148 1.041,4.143 c -2.667,0.866 -3.772,1.225 -2.916,5.968 l 6.928,38.388 c 0.855,4.742 2.01,4.689 4.819,4.572 l 0.472,4.246 z"
       style="fill:#ffffff;fill-opacity:1;fill-rule:nonzero;stroke:none"
       transform="matrix(0.35277776,0,0,-0.35277776,108.54897,61.08805)"
       clip-path="url(#clipPath32)" />
    <path
       id="path33"
       d="m 0,0 c -5.15,-4.845 -12.216,-6.767 -19.378,-5.285 -5.784,1.199 -10.713,4.463 -13.881,9.19 -3.606,5.38 -4.666,12.298 -3.069,20.004 1.49,7.186 4.871,12.651 9.777,15.806 4.096,2.636 9.241,3.569 14.121,2.556 4.573,-0.948 8.299,-3.438 10.223,-6.832 1.635,-2.885 1.842,-6.295 0.599,-9.865 l 3.977,-1.577 5.257,11.767 -0.898,1.031 c -4.907,5.634 -11.254,9.39 -18.355,10.864 -14.527,3.012 -32.133,-4.339 -36.186,-23.887 -1.769,-8.531 -0.091,-16.905 4.724,-23.581 4.4,-6.098 11.254,-10.493 18.803,-12.058 2.092,-0.434 4.183,-0.648 6.252,-0.648 7.959,0 15.58,3.159 21.564,9.081 L 5.441,-1.542 1.21,1.137 Z"
       style="fill:#ffffff;fill-opacity:1;fill-rule:nonzero;stroke:none"
       transform="matrix(0.35277776,0,0,-0.35277776,130.34248,80.778875)"
       clip-path="url(#clipPath34)" />
    <path
       id="path35"
       d="m 0,0 c 2.903,11.835 10.295,15.879 17.046,15.879 1.417,0 2.808,-0.179 4.122,-0.501 5.175,-1.269 9.845,-4.829 12.811,-9.766 2.7,-4.491 5.313,-12.227 2.436,-23.58 C 32.877,-32.086 22.801,-36.321 14.389,-34.257 9.034,-32.943 4.379,-29.102 1.617,-23.72 -1.674,-17.305 -2.233,-9.103 0,0 m 25.29,19.887 c -14.162,3.474 -31.656,-1.988 -36.612,-22.188 -2.218,-9.045 -0.899,-17.446 3.815,-24.296 4.171,-6.059 10.695,-10.432 18.373,-12.316 2.65,-0.65 5.316,-0.971 7.941,-0.971 4.955,0 9.761,1.145 14.016,3.392 7.371,3.894 12.438,10.729 14.655,19.767 4.954,20.2 -8.029,33.139 -22.188,36.612"
       style="fill:#ffffff;fill-opacity:1;fill-rule:nonzero;stroke:none"
       transform="matrix(0.35277776,0,0,-0.35277776,136.63756,75.490648)"
       clip-path="url(#clipPath36)" />
    <path
       id="path37"
       d="m 0,0 307.92,39.29 54.964,-152.429 -360.743,9.1 z m -23.51,133.33 -1.649,1.263 L -406.371,428.318 -677.87,126.35 c -22.675,76.932 -39.29,163.713 -44.643,262.528 51.602,49.739 267.238,216.343 707.953,50.531 0.064,2.034 0.15,4.068 0.214,6.102 -0.064,-2.034 -0.128,-4.068 -0.193,-6.102 C -18.264,324.75 -21.411,212.018 -23.51,133.33 m -99.264,-150.288 -266.21,164.463 -208.164,-223.623 c -12.526,25.116 -24.923,51.623 -36.742,79.672 L -399.305,259.552 -38.669,28.22 C -65.99,10.963 -94.254,-3.983 -122.774,-16.958 m -273.962,-76.054 c -44.685,-6.017 -84.725,-8.8 -116.629,-9.956 L -383.096,54.728 -209.32,-50.596 c -68.431,-22.503 -134.186,-35.222 -187.416,-42.416 m -216.385,648.793 -13.211,23.703 2.334,-77.339 -5.717,-1.841 -43.059,63.014 4.347,-44.472 c 0.963,-10.106 2.74,-16.166 5.245,-17.986 1.799,-1.306 4.732,-0.706 9.336,0.343 l 0.343,0.064 1.691,-6.188 -32.246,-10.363 -2.227,6.017 c 9.015,3.789 12.376,5.203 10.278,28.241 l -7.987,84.919 5.46,1.756 45.971,-68.089 -2.484,82.07 5.268,1.692 1.37,-1.927 c 4.411,-6.252 15.074,-25.244 22.14,-37.791 3.104,-5.503 5.759,-10.257 6.402,-11.263 l 0.128,-0.171 c 2.741,-4.989 5.481,-9.571 8.286,-13.682 l 3.94,2.441 c 4.689,2.912 5.995,4.646 7.644,28.306 l 3.362,51.366 4.882,1.563 36.185,-44.343 c 10.342,-12.762 13.811,-28.242 9.571,-42.524 -4.218,-14.11 -15.181,-24.966 -30.083,-29.762 -26.336,-8.457 -42.288,8.543 -51.345,22.397 l -2.377,-0.771 2.055,1.263 c -2.248,3.512 -4.068,6.766 -5.502,9.357 m 164.805,-13.939 -68.175,-8.736 -1.22,6.274 c 5.481,1.477 8.222,2.205 6.937,12.354 l -9.635,75.219 c -1.306,10.128 -4.154,10.149 -9.828,10.171 l -0.407,6.402 65.884,8.436 8.329,-27.3 -5.952,-2.334 c -0.257,0.514 -0.536,1.178 -0.857,1.949 -2.591,6.188 -7.944,19.035 -26.122,16.701 l -14.067,-1.799 5.245,-40.896 16.295,2.077 c 5.909,0.771 6.487,5.075 6.68,11.562 l 0.022,0.793 6.401,0.299 3.748,-29.291 -6.253,-1.327 -0.257,0.813 c -1.82,6.21 -3.468,10.192 -9.357,9.443 l -16.294,-2.077 4.754,-37.106 c 1.199,-9.293 1.199,-9.293 11.69,-7.965 l 5.353,0.685 c 18.157,2.333 20.127,16.123 21.069,22.76 0.108,0.835 0.214,1.542 0.321,2.098 l 6.36,-0.749 -1.071,-25.394 z m 282.44,-9.785 c 5.653,-0.492 8.501,-0.749 10.728,9.25 l 16.444,74.02 c 2.226,9.978 -0.45,10.962 -5.781,12.911 l 1.798,6.167 33.638,-7.473 -0.964,-6.338 c -5.481,0.45 -8.5,0.707 -10.727,-9.25 l -18.478,-83.248 c 8.95,-2.291 17.258,-5.653 25.308,-8.929 8.222,-3.34 15.995,-6.488 23.767,-8.222 12.676,-2.805 23.018,-1.306 33.552,4.882 l 2.313,1.349 4.175,-4.882 -2.12,-2.098 c -10.791,-10.599 -20.726,-15.716 -30.811,-15.716 -2.227,0 -4.496,0.257 -6.745,0.749 -7.772,1.734 -15.181,6.188 -22.996,10.899 -9.335,5.631 -19.913,11.99 -33.145,14.945 l -20.919,4.646 z m -247.175,64.941 c -14.774,7.28 -30.062,14.796 -30.683,31.818 -0.342,8.864 2.998,16.23 9.657,21.347 5.524,4.218 13.232,6.724 21.733,7.045 10.727,0.407 21.539,-2.719 28.22,-8.137 l 1.306,-1.049 -1.52,-20.641 -6.402,0.129 c -0.278,7.066 -3.105,12.825 -8.158,16.658 -4.389,3.298 -10.385,5.096 -16.444,4.839 -7.901,-0.299 -16.273,-4.282 -15.973,-12.376 0.385,-10.192 11.969,-16.016 25.394,-22.76 16.08,-8.094 34.301,-17.258 35.051,-37.214 0.406,-10.577 -3.383,-19.527 -10.942,-25.886 -6.594,-5.524 -15.844,-8.779 -26.058,-9.164 -0.663,-0.022 -1.348,-0.043 -2.034,-0.043 -13.617,0 -26.914,5.117 -35.885,13.874 l -1.285,1.221 10.577,50.553 0.985,-26.229 c 0.386,-10.428 3.897,-18.907 10.171,-24.517 5.267,-4.71 12.461,-7.258 19.741,-7.001 10.278,0.385 21.133,6.744 20.641,19.763 -0.536,14.217 -13.918,20.79 -28.092,27.77 m 92.733,-47.662 -0.663,-6.359 -34.452,1.22 -0.192,6.402 c 5.631,0.557 8.479,0.814 8.843,11.049 l 3.019,85.625 c -15.738,-0.921 -19.528,-12.997 -21.412,-18.992 -0.257,-0.814 -0.471,-1.499 -0.664,-2.034 l -6.145,1.777 5.781,27.963 63.828,-2.248 3.962,-28.306 -6.231,-1.435 c -0.193,0.621 -0.407,1.414 -0.642,2.377 -1.649,6.531 -4.647,18.35 -19.913,20.255 l -3.041,-85.646 c -0.364,-10.213 2.42,-10.684 7.922,-11.648 m 50.66,23.489 -1.927,-15.224 c -1.284,-10.128 1.649,-10.898 6.959,-12.333 l -1.242,-6.274 -34.194,4.347 0.385,6.381 c 5.674,0.042 8.522,0.064 9.828,10.213 l 9.571,75.24 c 1.285,10.128 -1.477,10.877 -6.958,12.312 l 1.22,6.295 31.689,-4.025 c 24.88,-3.084 36.378,-21.176 36.721,-37.749 0.278,-13.832 -7.066,-29.034 -23.66,-36.378 0.964,-0.386 1.906,-0.835 2.826,-1.285 l 11.563,1.135 c 7.087,0.685 10.406,1.777 21.497,22.032 l 25.009,45.115 5.074,-0.664 13.832,-55.499 c 4.325,-17.472 1.135,-33.873 -8.779,-45.007 -7.408,-8.329 -17.75,-12.762 -29.526,-12.762 -2.056,0 -4.175,0.15 -6.317,0.407 -17.493,2.227 -25.993,14.089 -33.487,24.559 -6.831,9.55 -12.719,17.815 -24.26,17.429 l -3.768,-0.107 0.214,1.713 z m 209.406,8.393 c 6.231,-1.37 7.708,1.542 9.999,7.28 l 0.107,0.321 6.124,-1.905 -5.588,-25.159 -6.338,0.878 0.021,0.3 c 0.343,6.08 0.235,9.314 -5.995,10.705 l -18.8,4.304 -4.817,-21.711 c -1.071,-4.796 -1.157,-7.173 -0.343,-8.265 1.071,-1.413 4.625,-2.441 9.635,-3.555 l 7.023,-1.562 c 17.943,-3.983 22.911,5.16 25.866,10.641 0.342,0.6 0.621,1.135 0.899,1.584 l 5.717,-2.869 -9.143,-22.503 -67.468,14.988 0.985,6.338 c 5.353,-0.471 7.58,-0.664 9.828,9.442 l 9.913,44.622 c 2.249,10.106 0.3,10.813 -4.903,12.719 l 1.799,6.145 65.69,-14.582 -1.07,-22.91 -6.424,-0.193 c -0.042,0.493 -0.085,1.049 -0.106,1.649 -0.386,5.76 -1.007,15.395 -19.25,19.442 l -16.465,3.661 -5.695,-25.608 z m -614.77,258.46 0.064,0.235 c 35.907,160.137 132.988,287.879 288.672,380.099 -0.365,-0.278 -0.75,-0.578 -1.114,-0.857 l -7.73,-6.038 c -5.16,-4.025 -10.406,-8.008 -15.309,-12.354 l -15.009,-12.826 c -4.882,-4.411 -9.636,-8.971 -14.475,-13.468 -2.398,-2.269 -4.86,-4.475 -7.194,-6.808 l -6.937,-7.088 -6.938,-7.108 -3.49,-3.555 -3.319,-3.682 c -35.95,-39.034 -67.061,-83.313 -91.491,-131.682 -12.205,-24.174 -22.718,-49.375 -31.39,-75.454 -4.239,-13.083 -8.115,-26.358 -11.369,-39.954 l -2.313,-10.278 c -0.685,-3.469 -1.413,-6.937 -2.055,-10.449 -0.621,-3.554 -1.264,-7.087 -1.777,-10.77 -0.3,-1.798 -0.536,-3.683 -0.771,-5.61 -0.129,-0.942 -0.257,-1.884 -0.343,-2.976 -0.107,-1.071 -0.235,-1.927 -0.321,-3.618 l 81.343,-1.863 c -0.065,0 -0.086,0.663 -0.108,1.177 -0.021,0.514 -0.021,1.156 -0.042,1.799 -0.022,1.285 -0.022,2.569 0,3.961 0.021,2.676 0.15,5.503 0.257,8.308 l 0.514,8.564 0.77,8.651 c 1.178,11.605 2.955,23.295 5.075,35.008 4.475,23.36 10.684,46.656 18.628,69.502 15.909,45.671 38.584,89.586 66.997,130.075 l 2.634,3.833 2.783,3.704 5.567,7.451 5.567,7.452 c 1.884,2.483 3.919,4.839 5.867,7.258 3.961,4.775 7.836,9.657 11.883,14.41 l 12.484,13.939 c 4.11,4.753 8.543,9.143 12.932,13.618 l 6.595,6.723 c 2.226,2.227 4.346,4.539 6.702,6.616 9.249,8.479 18.221,17.387 28.006,25.352 17.236,14.752 35.243,28.67 53.957,41.795 44.708,18.799 85.218,31.689 116.179,40.125 -3.961,-2.184 -7.879,-4.453 -11.733,-6.83 -20.619,-12.825 -39.847,-28.199 -57.212,-45.521 -34.858,-34.687 -62.586,-76.332 -84.875,-120.269 -22.226,-44.086 -39.312,-90.614 -52.587,-138.105 -6.659,-23.767 -12.355,-47.79 -17.151,-72.093 -2.398,-12.14 -4.539,-24.366 -6.466,-36.678 -0.964,-6.166 -1.842,-12.354 -2.655,-18.606 l -1.178,-9.443 -0.535,-4.839 -0.236,-2.484 -0.236,-2.783 81.343,-1.478 c -0.042,0.279 -0.064,1.071 -0.107,1.671 l -0.085,1.969 -0.15,4.09 -0.15,8.372 c -0.086,5.61 -0.086,11.284 -0.022,16.979 0.15,11.391 0.514,22.825 1.114,34.28 1.199,22.911 3.276,45.864 6.273,68.689 5.974,45.649 15.609,90.935 30.298,134.615 14.795,43.572 34.815,85.646 62.715,122.709 13.896,18.521 29.89,35.586 47.833,50.66 9.036,7.473 18.521,14.453 28.434,20.877 0.086,0.042 0.15,0.107 0.236,0.149 8.436,2.035 15.652,3.64 21.455,4.861 1.841,-3.597 3.468,-7.259 4.924,-10.984 3.726,-9.486 6.445,-19.314 8.501,-29.249 4.089,-19.891 5.802,-40.168 6.273,-60.487 0.857,-40.618 -2.891,-81.322 -8.393,-121.704 -5.567,-40.382 -13.168,-80.55 -22.011,-120.376 -4.411,-19.934 -9.143,-39.783 -14.196,-59.503 -2.527,-9.87 -5.117,-19.698 -7.794,-29.505 l -4.09,-14.603 -2.077,-7.258 c -0.706,-2.355 -1.434,-4.882 -2.098,-6.959 l 79.544,-17.108 1.05,8.222 0.942,7.965 1.713,15.824 c 1.092,10.555 2.098,21.069 3.018,31.582 1.821,21.026 3.319,42.073 4.454,63.121 2.291,42.074 3.276,84.233 2.184,126.414 -1.199,42.138 -4.239,84.426 -12.033,126.072 -3.919,20.769 -9.143,41.431 -16.723,61.215 -3.832,9.871 -8.286,19.506 -13.703,28.585 -1.927,3.233 -3.983,6.402 -6.188,9.442 1.97,0.386 3.747,0.75 5.31,1.05 C -5.695,1166.29 12.719,960.932 4.753,885.306 3.019,868.926 0.492,819.636 -2.441,752.404 c 0,-0.364 -0.021,-0.75 -0.043,-1.114 -1.242,-28.605 -2.548,-60.445 -3.897,-94.361 -0.107,0.022 -0.214,0.065 -0.321,0.086 -72.607,18.992 -503.729,121.939 -709.859,-52.672 7.58,72.928 21.005,151.187 41.539,235.335 M 11.541,449.537 c 3.49,106.651 7.451,214.03 11.455,296.058 0.064,1.52 0.129,3.04 0.214,4.518 1.264,25.608 2.527,48.647 3.79,68.303 l 99.072,-274.775 -108.536,-28.05 116.351,6.36 79.629,-220.84 L 55.627,265.354 221.332,279.443 298.992,64.042 -0.535,25.844 -0.557,26.7 c 0.236,9.529 5.289,214.716 12.098,422.665 z M 30.49,884.449 c 7.923,81.279 -12.354,297.728 -126.114,462.427 l -4.582,6.659 -7.987,-1.264 c -5.053,-0.792 -125.45,-20.319 -259.38,-92.198 -78.859,-42.331 -145.792,-94.104 -198.935,-153.885 -66.59,-74.919 -111.512,-162.579 -133.501,-260.537 -49.376,-202.275 -62.394,-382.689 -39.74,-551.563 19.12,-142.686 62.693,-274.775 137.12,-415.727 l 3.361,-6.36 7.173,-0.471 c 1.392,-0.085 15.823,-0.984 40.104,-0.984 35.222,0 91.149,1.884 158.082,10.898 100.013,13.447 243.107,45.971 368.087,124.487 l 2.612,-126.735 V -252.143 H 0.343 v 122.453 l 399.454,-10.063 z"
       style="fill:#ffffff;fill-opacity:1;fill-rule:nonzero;stroke:none"
       transform="matrix(0.35277776,0,0,-0.35277776,166.86996,342.55955)"
       clip-path="url(#clipPath38)" />
    <path
       id="path39"
       d="m 0,0 c -2.332,-3.105 -5.551,-4.689 -9.568,-4.689 h -1.101 c -4.903,0 -6.026,0.385 -6.242,0.621 -0.475,0.514 -0.475,3.918 -0.475,5.374 v 27.942 h 5.723 c 10.367,0 15.097,-9.25 15.097,-17.836 C 3.434,6.98 2.203,2.933 0,0 m -17.386,57.897 c 0,5.396 0.086,5.524 2.376,5.781 h 3.455 c 3.11,0 5.573,-1.242 7.344,-3.726 1.706,-2.419 2.656,-5.781 2.656,-9.506 0,-7.109 -3.477,-14.325 -10.108,-14.325 h -5.723 z M 4.708,33.659 c 6.847,4.539 9.568,11.841 9.007,18.2 -0.843,9.571 -9.028,19.249 -25.378,19.249 h -26.111 l -0.432,-6.402 c 3.995,-0.535 5.486,-0.728 5.486,-7.451 V 1.756 c 0,-6.724 -1.491,-6.938 -5.486,-7.451 l 0.432,-6.402 h 29.092 c 18.941,0 28.012,12.033 28.422,23.21 0.346,8.821 -4.73,18.157 -15.032,22.546"
       style="fill:#ffffff;fill-opacity:1;fill-rule:nonzero;stroke:none"
       transform="matrix(0.35277776,0,0,-0.35277776,-32.595764,427.0988)"
       clip-path="url(#clipPath40)" />
    <path
       id="path41"
       d="m 0,0 v 40.222 c 0,6.001 0.336,6.001 2.955,6.001 h 0.221 c 9.701,0 14.968,-9.551 15.883,-19.017 C 20.136,16.071 15.433,2.961 2.561,0.491 Z m 50.195,-4.119 0.56,6.375 c -2.242,0.391 -3.448,0.845 -3.794,1.43 -0.371,0.63 -0.682,2.428 0.924,7.551 h 15.664 l 4.532,-11.981 c 2.383,-6.133 2.144,-11.967 -0.656,-16.011 -2.247,-3.245 -5.909,-4.96 -10.592,-4.96 -7.364,0 -12.273,4.72 -17.958,10.183 -2.611,2.512 -5.352,5.146 -8.482,7.413 z m 0.455,22.656 5.119,12.798 4.89,-12.798 z M -15.33,-6.38 v -9.334 c 0,-6.728 -1.495,-6.927 -5.486,-7.454 l 0.428,-6.396 H 5.058 l 0.437,6.394 C 1.496,-22.629 0,-22.426 0,-15.714 v 9.084 l 3.683,0.577 c 7.565,1.175 12.009,-3.087 18.624,-10.156 6.581,-7.03 14.038,-15.001 27.446,-15.001 11.003,0 20.168,4.494 25.806,12.653 6.382,9.233 7.229,21.727 2.326,34.279 L 62.368,55.279 H 57.403 L 43.087,19.68 C 36.771,3.755 34.509,3.243 30.004,2.225 l -8.09,-1.83 C 21.849,0.416 21.784,0.439 21.719,0.46 32.288,7.626 35.914,19.049 34.443,28.891 32.603,41.222 22.265,53.634 3.321,53.634 H 3.176 -20.388 l -0.428,-6.397 c 3.991,-0.527 5.486,-0.725 5.486,-7.454 V -5.579 Z"
       style="fill:#ffffff;fill-opacity:1;fill-rule:nonzero;stroke:none"
       transform="matrix(0.35277776,0,0,-0.35277776,-17.767932,420.93763)"
       clip-path="url(#clipPath42)" />
    <path
       id="path43"
       d="m 0,0 -1.443,-2.039 c -5.792,-8.192 -15.109,-12.891 -25.558,-12.891 -15.491,0 -32.163,11.145 -32.163,35.614 0,22.33 14.098,32.324 28.07,32.324 6.655,0 12.573,-2.373 16.233,-6.509 3.106,-3.511 4.376,-8.157 3.676,-13.441 l 6.377,-1.106 3.983,18.016 -1.647,1.242 c -8.567,6.455 -18.617,9.867 -29.065,9.867 -21.361,0 -44.062,-15.387 -44.062,-43.902 0,-27.946 22.474,-43.026 43.619,-43.026 14.919,0 28.323,7.239 36.773,19.862 l 2.251,3.361 z"
       style="fill:#ffffff;fill-opacity:1;fill-rule:nonzero;stroke:none"
       transform="matrix(0.35277776,0,0,-0.35277776,38.310532,422.82824)"
       clip-path="url(#clipPath44)" />
    <path
       id="path45"
       d="m 0,0 -1.443,-2.039 c -5.792,-8.192 -15.109,-12.891 -25.558,-12.891 -15.491,0 -32.163,11.145 -32.163,35.614 0,22.33 14.098,32.324 28.07,32.324 6.655,0 12.572,-2.373 16.233,-6.509 3.106,-3.511 4.376,-8.157 3.676,-13.441 l 6.377,-1.106 3.983,18.016 -1.647,1.242 c -8.567,6.455 -18.617,9.867 -29.065,9.867 -21.361,0 -44.062,-15.387 -44.062,-43.902 0,-27.946 22.474,-43.026 43.619,-43.026 14.919,0 28.323,7.239 36.773,19.862 l 2.25,3.361 z"
       style="fill:#ffffff;fill-opacity:1;fill-rule:nonzero;stroke:none"
       transform="matrix(0.35277776,0,0,-0.35277776,66.901168,422.82824)"
       clip-path="url(#clipPath46)" />
    <path
       id="path47"
       d="m 0,0 v 55.497 c 0,6.712 1.496,6.914 5.495,7.456 l -0.437,6.394 h -25.446 l -0.428,-6.396 c 3.991,-0.527 5.486,-0.726 5.486,-7.454 L -15.33,0 c 0,-6.729 -1.495,-6.927 -5.486,-7.454 l 0.428,-6.397 H 5.058 l 0.437,6.395 C 1.496,-6.915 0,-6.712 0,0"
       style="fill:#ffffff;fill-opacity:1;fill-rule:nonzero;stroke:none"
       transform="matrix(0.35277776,0,0,-0.35277776,75.809821,426.48107)"
       clip-path="url(#clipPath48)" />
    <path
       id="path49"
       d="M 0,0 7.61,24.157 15.01,0 Z M 36.297,-16.387 14.227,52.538 H 8.926 l -19.41,-61.259 c -5.166,-16.346 -6.798,-16.484 -13.668,-17.065 l 0.275,-6.411 h 23.565 l 0.285,6.411 c -2.295,0.201 -4.897,0.429 -5.477,1.288 -0.562,0.834 -1.066,3.613 1.877,12.908 l 1.3,4.29 h 19.633 l 3.183,-10.463 c 0.926,-2.963 1.02,-5.116 0.272,-6.225 -0.813,-1.204 -3.044,-1.643 -4.771,-1.798 l 0.293,-6.411 h 31.529 l 0.332,6.407 c -7.59,0.771 -9.285,1.221 -11.847,9.403"
       style="fill:#ffffff;fill-opacity:1;fill-rule:nonzero;stroke:none"
       transform="matrix(0.35277776,0,0,-0.35277776,85.861342,420.00892)"
       clip-path="url(#clipPath50)" />
    <path
       id="path51"
       d="m 0,0 h -17.48 l -0.437,-6.394 c 2.664,-0.36 5.495,-5.019 5.495,-12.939 V -49.861 L -41.042,0 h -28.384 l 13.124,-4.389 c 3.049,-0.947 3.389,-4.523 3.389,-13.629 v -45.845 c 0,-8.019 -2.76,-12.579 -5.486,-12.939 l 0.428,-6.396 h 17.479 l 0.438,6.394 c -2.61,0.354 -5.385,5.008 -5.385,12.941 v 39.43 l 34.254,-60.191 h 6.127 v 65.291 c 0,7.92 2.832,12.579 5.496,12.939 z"
       style="fill:#ffffff;fill-opacity:1;fill-rule:nonzero;stroke:none"
       transform="matrix(0.35277776,0,0,-0.35277776,123.06411,402.0169)"
       clip-path="url(#clipPath52)" />
    <path
       id="path53"
       d="m 0,0 c -15.708,0 -31.61,14.532 -31.61,42.305 0,20.863 12.976,28.265 24.087,28.265 7.604,0 15.289,-3.318 21.082,-9.104 C 18.835,56.195 25.097,46.428 24.971,29.817 24.867,9.219 12.354,0 0,0 m -3.32,78.529 c -21.675,0 -43.619,-14.855 -43.619,-43.244 0,-28.391 21.944,-43.245 43.619,-43.245 21.677,0 43.621,14.854 43.621,43.245 0,29.711 -22.611,43.244 -43.621,43.244"
       style="fill:#ffffff;fill-opacity:1;fill-rule:nonzero;stroke:none"
       transform="matrix(0.35277776,0,0,-0.35277776,140.27724,429.13955)"
       clip-path="url(#clipPath54)" />
  </g>
</svg>
